<svg xmlns="http://www.w3.org/2000/svg" width="512" height="512" viewBox="0 0 512 512">
<g>
<path d="M 510.65 230.56 C511.00,235.20 511.45,239.00 511.65,239.00 C511.84,239.00 512.00,185.23 512.00,119.50 L 512.00 512.00 L 0.00 512.00 L 0.00 0.00 L 512.00 0.00 L 390.75 0.14 C321.72,0.22 273.66,0.62 279.15,1.08 C325.39,4.90 371.44,22.81 410.97,52.33 C423.24,61.49 450.51,88.76 459.67,101.03 C484.31,134.03 500.42,170.27 507.51,208.66 C508.88,216.06 510.29,225.92 510.65,230.56 ZM 233.50 483.38 C240.80,484.43 282.89,483.16 292.00,481.62 C341.88,473.19 385.34,450.28 420.54,413.88 C452.95,380.36 473.82,338.59 481.67,291.50 C484.28,275.84 484.26,236.16 481.64,220.50 C472.47,165.62 445.80,118.24 404.00,82.57 C370.44,53.93 330.79,36.13 286.50,29.82 C272.98,27.89 237.10,28.18 223.21,30.33 C160.52,40.04 105.88,73.67 69.67,124.85 C18.19,197.59 14.23,295.33 59.69,371.15 C82.29,408.86 110.38,436.38 146.50,456.21 C173.91,471.25 195.18,477.90 233.50,483.38 ZM 0.14 121.25 C0.22,193.38 0.61,238.72 1.10,233.17 C2.90,212.97 8.75,186.69 15.53,168.36 C24.22,144.88 40.25,116.51 56.42,96.00 C65.67,84.26 89.35,61.36 102.00,51.91 C141.05,22.75 186.13,5.29 233.17,1.10 C238.72,0.61 193.38,0.22 121.25,0.14 L 0.00 0.00 ZM 0.14 390.75 L 0.00 512.00 L 120.25 511.87 C189.57,511.79 237.11,511.39 232.50,510.91 C184.13,505.95 140.84,489.09 102.00,460.09 C89.35,450.64 65.67,427.74 56.42,416.00 C40.25,395.49 24.22,367.12 15.53,343.64 C8.75,325.31 2.90,299.03 1.10,278.83 C0.61,273.28 0.22,318.62 0.14,390.75 ZM 280.50 510.92 C275.90,511.39 323.37,511.79 392.25,511.87 L 512.00 512.00 L 511.87 392.25 C511.79,323.37 511.39,275.90 510.92,280.50 C506.04,328.09 488.83,371.92 459.67,410.97 C450.51,423.24 423.24,450.51 410.97,459.67 C371.88,488.87 328.15,506.04 280.50,510.92 ZM 278.00 396.51 C266.36,398.26 243.29,398.23 232.50,396.45 C222.88,394.87 207.38,390.39 196.65,386.09 C178.07,378.64 159.07,366.00 144.08,351.12 C135.31,342.42 122.99,327.33 123.00,325.30 C123.01,324.86 127.17,321.83 132.25,318.58 C137.34,315.32 142.47,312.03 143.65,311.28 C145.67,309.98 146.07,310.25 150.13,315.70 C156.91,324.79 173.76,340.98 182.52,346.85 C230.83,379.16 289.91,377.46 336.50,342.40 C344.95,336.05 353.90,326.95 360.98,317.50 C363.87,313.65 366.38,310.34 366.57,310.14 C366.99,309.67 387.69,322.93 389.01,324.51 C390.50,326.30 379.45,340.63 367.25,352.73 C343.84,375.93 312.44,391.33 278.00,396.51 ZM 317.53 220.75 L 316.82 225.00 L 289.00 225.00 L 289.01 221.75 C289.07,210.52 295.95,195.21 304.95,186.29 C315.76,175.58 328.12,170.61 344.00,170.61 C365.47,170.61 382.72,180.80 391.98,198.95 C395.79,206.42 398.00,214.04 398.00,219.68 L 398.00 225.06 L 384.33 224.78 L 370.66 224.50 L 369.55 218.97 C367.07,206.51 357.09,198.65 343.80,198.69 C330.24,198.73 319.72,207.57 317.53,220.75 ZM 142.00 222.75 C142.00,224.98 141.85,225.00 128.00,225.00 L 114.00 225.00 L 114.02 222.25 C114.05,216.37 117.06,205.68 120.53,199.07 C127.20,186.38 139.26,176.62 153.50,172.40 C162.21,169.81 176.50,169.97 185.50,172.75 C204.96,178.77 220.42,196.57 222.55,215.40 C222.86,218.21 223.33,221.52 223.59,222.78 L 224.05 225.06 L 209.85 224.78 L 195.66 224.50 L 194.54 218.89 C193.92,215.81 192.71,212.21 191.84,210.89 C182.21,196.31 161.69,194.26 149.35,206.67 C145.56,210.47 141.99,218.30 142.00,222.75 Z" fill="rgb(2,1,2)"/>
<path d="M 233.50 483.38 C195.18,477.90 173.91,471.25 146.50,456.21 C111.70,437.10 84.35,410.86 62.18,375.24 C72.01,390.95 83.70,405.58 94.59,415.71 C100.38,421.09 105.60,425.37 106.18,425.21 C106.77,425.05 107.98,425.55 108.88,426.33 C110.56,427.80 133.34,439.00 134.63,439.00 C135.04,439.00 137.20,439.85 139.43,440.90 C143.54,442.82 154.74,446.53 165.21,449.44 C172.89,451.58 186.16,453.95 199.50,455.56 C214.74,457.40 248.57,456.66 265.00,454.12 C303.72,448.14 341.32,432.02 374.09,407.34 C385.19,398.97 406.93,377.87 415.65,367.00 C426.51,353.45 440.41,331.31 445.46,319.50 C446.87,316.20 448.53,312.63 449.14,311.56 C451.06,308.22 457.94,288.19 460.98,277.10 C470.24,243.36 471.47,204.22 464.46,166.61 C463.72,162.63 462.74,159.44 460.85,155.33 C470.78,175.51 477.77,197.34 481.64,220.50 C484.26,236.16 484.28,275.84 481.67,291.50 C473.82,338.59 452.95,380.36 420.54,413.88 C385.34,450.28 341.88,473.19 292.00,481.62 C282.89,483.16 240.80,484.43 233.50,483.38 ZM 21.30 357.63 C28.25,373.02 37.49,389.35 47.30,403.59 C36.84,388.60 28.21,373.38 21.30,357.63 ZM 21.30 154.37 C28.21,138.62 36.84,123.40 47.30,108.41 C37.49,122.65 28.25,138.98 21.30,154.37 ZM 0.81 230.03 C1.00,231.95 1.26,230.78 1.59,228.00 C3.38,212.96 6.26,198.61 10.28,184.76 C5.88,200.51 2.41,218.45 1.10,233.17 C1.00,234.35 0.90,233.23 0.81,230.03 ZM 0.81 281.97 C0.90,278.77 1.00,277.65 1.10,278.83 C2.41,293.55 5.88,311.49 10.28,327.24 C6.26,313.39 3.38,299.04 1.59,284.00 C1.26,281.22 1.00,280.05 0.81,281.97 ZM 84.98 66.43 C91.23,60.62 97.24,55.44 102.00,51.90 C123.71,35.71 146.38,23.46 170.76,14.84 C146.48,23.53 123.34,35.98 102.00,51.91 C97.38,55.36 91.30,60.60 84.98,66.43 ZM 368.37 57.51 C343.54,43.47 315.92,34.01 286.50,29.82 C315.99,34.02 343.42,43.32 368.37,57.51 ZM 342.96 15.32 C366.93,24.05 389.64,36.40 410.97,52.33 C389.84,36.55 366.85,24.09 342.96,15.32 ZM 223.88 2.11 C226.57,1.74 229.27,1.40 232.00,1.09 C235.22,0.74 211.19,0.43 170.57,0.26 C213.11,0.42 237.31,0.74 233.17,1.10 C230.06,1.38 226.97,1.72 223.88,2.11 ZM 332.79 0.30 C297.96,0.48 277.40,0.77 280.50,1.08 C283.98,1.44 287.44,1.86 290.87,2.35 C286.97,1.83 283.06,1.40 279.15,1.08 C275.39,0.77 296.76,0.48 332.79,0.30 ZM 455.37 144.90 C447.85,131.62 439.20,119.29 429.56,108.00 C439.43,119.47 448.05,131.80 455.37,144.90 ZM 84.98 445.57 C91.30,451.40 97.38,456.64 102.00,460.09 C108.55,464.98 115.23,469.53 122.04,473.73 C115.23,469.53 108.56,464.99 102.00,460.10 C97.24,456.56 91.23,451.38 84.98,445.57 Z" fill="rgb(241,173,11)"/>
<path d="M 455.37 144.89 C457.29,148.32 459.11,151.80 460.85,155.33 C462.74,159.44 463.72,162.63 464.46,166.61 C471.47,204.22 470.24,243.36 460.98,277.10 C457.94,288.19 451.06,308.22 449.14,311.56 C448.53,312.63 446.87,316.20 445.46,319.50 C440.41,331.31 426.51,353.45 415.65,367.00 C406.93,377.87 385.19,398.97 374.09,407.34 C341.32,432.02 303.72,448.14 265.00,454.12 C248.57,456.66 214.74,457.40 199.50,455.56 C186.16,453.95 172.89,451.58 165.21,449.44 C154.74,446.53 143.54,442.82 139.43,440.90 C137.20,439.85 135.04,439.00 134.63,439.00 C133.34,439.00 110.56,427.80 108.88,426.33 C107.98,425.55 106.77,425.05 106.18,425.21 C105.60,425.37 100.38,421.09 94.59,415.71 C83.70,405.58 72.01,390.95 62.18,375.24 C61.34,373.89 60.51,372.53 59.69,371.15 C14.23,295.33 18.19,197.59 69.67,124.85 C105.88,73.67 160.52,40.04 223.21,30.33 C237.10,28.18 272.98,27.89 286.50,29.82 C315.99,34.02 343.42,43.32 368.37,57.51 C380.89,64.64 392.79,73.00 404.00,82.57 C413.27,90.48 421.80,98.97 429.56,108.00 C439.20,119.29 447.85,131.62 455.37,144.89 ZM 278.00 396.51 C312.44,391.33 343.84,375.93 367.25,352.73 C379.45,340.63 390.50,326.30 389.01,324.51 C387.69,322.93 366.99,309.67 366.57,310.14 C366.38,310.34 363.87,313.65 360.98,317.50 C353.90,326.95 344.95,336.05 336.50,342.40 C289.91,377.46 230.83,379.16 182.52,346.85 C173.76,340.98 156.91,324.79 150.13,315.70 C146.07,310.25 145.67,309.98 143.65,311.28 C142.47,312.03 137.34,315.32 132.25,318.58 C127.17,321.83 123.01,324.86 123.00,325.30 C122.99,327.33 135.31,342.42 144.08,351.12 C159.07,366.00 178.07,378.64 196.65,386.09 C207.38,390.39 222.88,394.87 232.50,396.45 C243.29,398.23 266.36,398.26 278.00,396.51 ZM 317.53 220.75 C319.72,207.57 330.24,198.73 343.80,198.69 C357.09,198.65 367.07,206.51 369.55,218.97 L 370.66 224.50 L 384.33 224.78 L 398.00 225.06 L 398.00 219.68 C398.00,214.04 395.79,206.42 391.98,198.95 C382.72,180.80 365.47,170.61 344.00,170.61 C328.12,170.61 315.76,175.58 304.95,186.29 C295.95,195.21 289.07,210.52 289.01,221.75 L 289.00 225.00 L 316.82 225.00 ZM 142.00 222.75 C141.99,218.30 145.56,210.47 149.35,206.67 C161.69,194.26 182.21,196.31 191.84,210.89 C192.71,212.21 193.92,215.81 194.54,218.89 L 195.66 224.50 L 209.85 224.78 L 224.05 225.06 L 223.59 222.78 C223.33,221.52 222.86,218.21 222.55,215.40 C220.42,196.57 204.96,178.77 185.50,172.75 C176.50,169.97 162.21,169.81 153.50,172.40 C139.26,176.62 127.20,186.38 120.53,199.07 C117.06,205.68 114.05,216.37 114.02,222.25 L 114.00 225.00 L 128.00 225.00 C141.85,225.00 142.00,224.98 142.00,222.75 Z" fill="rgb(253,208,9)"/>
<path d="M 0.11 392.25 C0.20,285.45 0.36,273.74 1.59,284.00 C7.28,331.64 23.78,372.43 53.37,412.00 C63.18,425.12 88.01,449.68 102.00,460.10 C140.95,489.14 184.15,505.96 232.50,510.91 C237.11,511.39 189.57,511.79 120.25,511.87 L 0.00 512.00 L 0.11 392.25 ZM 280.50 510.92 C328.15,506.04 371.88,488.87 410.97,459.67 C423.24,450.51 450.51,423.24 459.67,410.97 C488.83,371.92 506.04,328.09 510.92,280.50 C511.39,275.90 511.79,323.37 511.87,392.25 L 512.00 512.00 L 392.25 511.87 C323.37,511.79 275.90,511.39 280.50,510.92 ZM 0.11 119.75 L 0.00 0.00 L 119.75 0.13 C189.91,0.21 236.39,0.61 232.00,1.09 C182.72,6.58 140.84,22.95 102.00,51.90 C88.01,62.32 63.18,86.88 53.37,100.00 C23.78,139.57 7.28,180.36 1.59,228.00 C0.36,238.26 0.20,226.55 0.11,119.75 ZM 510.65 230.56 C510.29,225.92 508.88,216.06 507.51,208.66 C500.42,170.27 484.31,134.03 459.67,101.03 C450.51,88.76 423.24,61.49 410.97,52.33 C371.88,23.13 328.15,5.96 280.50,1.08 C275.90,0.61 323.37,0.21 392.25,0.13 L 512.00 0.00 L 512.00 119.50 C512.00,185.23 511.84,239.00 511.65,239.00 C511.45,239.00 511.00,235.20 510.65,230.56 Z" fill="rgb(254,254,254)"/>
</g>
</svg>