<?xml version="1.0" encoding="UTF-8"?>
<svg version="1.1" xmlns="http://www.w3.org/2000/svg" width="500" height="500">
<path d="M0 0 C1.1723671 -0.00807175 2.34473419 -0.01614349 3.55262756 -0.02445984 C6.03629095 -0.03825597 8.51997293 -0.04899799 11.00366211 -0.05688477 C13.49428027 -0.06830151 15.98487603 -0.08858523 18.4753418 -0.1184082 C64.63710947 -0.66967623 109.01623106 11.86156019 147.89599609 36.9921875 C149.74289312 38.17139221 151.60818906 39.3070443 153.4921875 40.42578125 C164.35396493 46.89985581 173.54469273 54.72676388 182.84765625 63.23828125 C183.77320313 64.05941406 184.69875 64.88054687 185.65234375 65.7265625 C193.89678901 73.10719984 201.44354175 81.02008953 208.84765625 89.23828125 C209.62625 90.08261719 210.40484375 90.92695312 211.20703125 91.796875 C219.76235463 101.59046887 226.13832951 113.15305022 232.84765625 124.23828125 C233.28029785 124.94452637 233.71293945 125.65077148 234.15869141 126.37841797 C249.49740787 151.48607607 259.20664919 180.26453925 263.84765625 209.23828125 C264.12367676 210.93464722 264.12367676 210.93464722 264.40527344 212.6652832 C266.15448599 224.77179839 266.24464041 236.83514935 266.22265625 249.05078125 C266.22244476 250.13410736 266.22223328 251.21743347 266.22201538 252.33358765 C266.18962015 268.96493137 265.42610359 284.93973266 261.84765625 301.23828125 C261.6657373 302.11468262 261.48381836 302.99108398 261.29638672 303.89404297 C257.42286569 322.25778656 251.02055024 339.91982154 243.28515625 356.98828125 C242.63329346 358.43315918 242.63329346 358.43315918 241.96826172 359.90722656 C238.78886701 366.72985028 234.97294744 372.95236175 230.84765625 379.23828125 C230.13499059 380.387655 229.42791624 381.54054737 228.73046875 382.69921875 C219.62478766 397.79441451 209.81288023 410.50448301 197.25390625 422.796875 C195.6851298 424.35032202 195.6851298 424.35032202 193.91015625 426.73828125 C191.50968547 429.6479428 188.82485167 431.93239974 185.95703125 434.37109375 C183.96267101 436.13647189 182.16836966 437.98422403 180.34765625 439.92578125 C171.38774601 448.97353375 160.59485079 456.21250151 149.421875 462.2265625 C146.38935842 463.87521384 143.51874794 465.72869583 140.625 467.609375 C113.71618443 484.8327514 81.3664741 495.0243973 49.84765625 499.23828125 C49.19943405 499.32565552 48.55121185 499.41302979 47.88334656 499.50305176 C41.84944357 500.25232902 35.88074448 500.41500887 29.8046875 500.44140625 C28.7597966 500.44710632 27.7149057 500.4528064 26.63835144 500.4586792 C24.43054195 500.46808466 22.22271871 500.47464536 20.01489258 500.47851562 C16.71474021 500.48812236 13.41523842 500.51914787 10.11523438 500.55078125 C-8.61297678 500.64571591 -26.72800903 498.85328695 -44.90234375 494.17578125 C-46.64306152 493.73286743 -46.64306152 493.73286743 -48.41894531 493.28100586 C-66.74689573 488.42124688 -84.53328563 481.3780808 -101.15234375 472.23828125 C-101.78092285 471.89522949 -102.40950195 471.55217773 -103.05712891 471.19873047 C-114.02097096 465.17931174 -114.02097096 465.17931174 -118.96484375 461.55078125 C-121.43855724 459.75612636 -123.680302 458.38361746 -126.359375 456.9765625 C-130.97452316 454.43638421 -134.98143427 451.47222585 -139.02734375 448.11328125 C-139.71425293 447.54996094 -140.40116211 446.98664063 -141.10888672 446.40625 C-146.3427112 442.05389888 -151.16629372 437.42180016 -155.89453125 432.53125 C-157.67257106 430.72552445 -159.41807011 429.11430576 -161.40234375 427.55078125 C-164.39275781 425.03611488 -166.78221082 422.30356422 -169.3046875 419.33203125 C-171.14407663 417.24764949 -173.08008423 415.34508193 -175.08984375 413.42578125 C-179.76441512 408.82368385 -183.40696286 403.60153726 -187.15234375 398.23828125 C-188.0269539 397.0713223 -188.9018963 395.9046122 -189.77734375 394.73828125 C-192.40319535 391.06208901 -194.44013141 387.09230038 -196.55859375 383.109375 C-198.10184604 380.3292514 -199.77331285 377.70175977 -201.52734375 375.05078125 C-209.91153625 362.00460919 -215.69574046 347.69904851 -221.15234375 333.23828125 C-221.61511719 332.03171875 -222.07789063 330.82515625 -222.5546875 329.58203125 C-225.46642122 321.47010854 -227.4357447 313.19833149 -229.33984375 304.80078125 C-229.59008301 303.70564209 -229.84032227 302.61050293 -230.09814453 301.48217773 C-233.59133943 285.50771952 -234.5009685 270.12589241 -234.46801758 253.82250977 C-234.46486568 250.57338606 -234.48837532 247.32518334 -234.51367188 244.07617188 C-234.56841071 226.29828182 -232.75740911 209.14014364 -228.46484375 191.86328125 C-228.21065674 190.82856689 -227.95646973 189.79385254 -227.69458008 188.7277832 C-221.06542951 162.62190652 -210.45409822 138.97817593 -196.15234375 116.23828125 C-195.47945312 115.14515625 -194.8065625 114.05203125 -194.11328125 112.92578125 C-187.66435922 102.56039058 -180.48521099 93.15251132 -172.15234375 84.23828125 C-170.94363625 82.92612582 -169.73533396 81.61359706 -168.52734375 80.30078125 C-167.21544119 78.8835613 -165.90293899 77.46689621 -164.58984375 76.05078125 C-163.97681396 75.3853833 -163.36378418 74.71998535 -162.73217773 74.03442383 C-158.99799207 70.03475352 -155.11339519 66.3503267 -150.95825195 62.7902832 C-148.75535741 60.89711021 -146.64736419 58.9108913 -144.52734375 56.92578125 C-134.13099172 47.58963559 -122.45149946 40.35516314 -110.33789062 33.48828125 C-108.19351515 32.26182879 -106.07077765 31.00370315 -103.94921875 29.73828125 C-91.5889257 22.47768953 -78.59194359 17.17132642 -65.15234375 12.23828125 C-64.31058594 11.92874512 -63.46882812 11.61920898 -62.6015625 11.30029297 C-42.66375848 4.12946171 -21.17100113 0.14150075 0 0 Z " fill="#FED665" transform="translate(234.15234375,-0.23828125)"/>
<path d="M0 0 C1.1723671 -0.00807175 2.34473419 -0.01614349 3.55262756 -0.02445984 C6.03629095 -0.03825597 8.51997293 -0.04899799 11.00366211 -0.05688477 C13.49428027 -0.06830151 15.98487603 -0.08858523 18.4753418 -0.1184082 C64.63710947 -0.66967623 109.01623106 11.86156019 147.89599609 36.9921875 C149.74289312 38.17139221 151.60818906 39.3070443 153.4921875 40.42578125 C164.35396493 46.89985581 173.54469273 54.72676388 182.84765625 63.23828125 C183.77320313 64.05941406 184.69875 64.88054687 185.65234375 65.7265625 C193.89678901 73.10719984 201.44354175 81.02008953 208.84765625 89.23828125 C209.62625 90.08261719 210.40484375 90.92695312 211.20703125 91.796875 C219.76235463 101.59046887 226.13832951 113.15305022 232.84765625 124.23828125 C233.28029785 124.94452637 233.71293945 125.65077148 234.15869141 126.37841797 C249.49740787 151.48607607 259.20664919 180.26453925 263.84765625 209.23828125 C264.12367676 210.93464722 264.12367676 210.93464722 264.40527344 212.6652832 C266.15448599 224.77179839 266.24464041 236.83514935 266.22265625 249.05078125 C266.22244476 250.13410736 266.22223328 251.21743347 266.22201538 252.33358765 C266.18962015 268.96493137 265.42610359 284.93973266 261.84765625 301.23828125 C261.6657373 302.11468262 261.48381836 302.99108398 261.29638672 303.89404297 C257.42286569 322.25778656 251.02055024 339.91982154 243.28515625 356.98828125 C242.63329346 358.43315918 242.63329346 358.43315918 241.96826172 359.90722656 C238.78886701 366.72985028 234.97294744 372.95236175 230.84765625 379.23828125 C230.13499059 380.387655 229.42791624 381.54054737 228.73046875 382.69921875 C219.62478766 397.79441451 209.81288023 410.50448301 197.25390625 422.796875 C195.6851298 424.35032202 195.6851298 424.35032202 193.91015625 426.73828125 C191.50968547 429.6479428 188.82485167 431.93239974 185.95703125 434.37109375 C183.96267101 436.13647189 182.16836966 437.98422403 180.34765625 439.92578125 C171.38774601 448.97353375 160.59485079 456.21250151 149.421875 462.2265625 C146.38935842 463.87521384 143.51874794 465.72869583 140.625 467.609375 C113.71618443 484.8327514 81.3664741 495.0243973 49.84765625 499.23828125 C49.19943405 499.32565552 48.55121185 499.41302979 47.88334656 499.50305176 C41.84944357 500.25232902 35.88074448 500.41500887 29.8046875 500.44140625 C28.7597966 500.44710632 27.7149057 500.4528064 26.63835144 500.4586792 C24.43054195 500.46808466 22.22271871 500.47464536 20.01489258 500.47851562 C16.71474021 500.48812236 13.41523842 500.51914787 10.11523438 500.55078125 C-8.61297678 500.64571591 -26.72800903 498.85328695 -44.90234375 494.17578125 C-46.64306152 493.73286743 -46.64306152 493.73286743 -48.41894531 493.28100586 C-66.74689573 488.42124688 -84.53328563 481.3780808 -101.15234375 472.23828125 C-101.78092285 471.89522949 -102.40950195 471.55217773 -103.05712891 471.19873047 C-114.02097096 465.17931174 -114.02097096 465.17931174 -118.96484375 461.55078125 C-121.43855724 459.75612636 -123.680302 458.38361746 -126.359375 456.9765625 C-130.97452316 454.43638421 -134.98143427 451.47222585 -139.02734375 448.11328125 C-139.71425293 447.54996094 -140.40116211 446.98664063 -141.10888672 446.40625 C-146.3427112 442.05389888 -151.16629372 437.42180016 -155.89453125 432.53125 C-157.67257106 430.72552445 -159.41807011 429.11430576 -161.40234375 427.55078125 C-164.39275781 425.03611488 -166.78221082 422.30356422 -169.3046875 419.33203125 C-171.14407663 417.24764949 -173.08008423 415.34508193 -175.08984375 413.42578125 C-179.76441512 408.82368385 -183.40696286 403.60153726 -187.15234375 398.23828125 C-188.0269539 397.0713223 -188.9018963 395.9046122 -189.77734375 394.73828125 C-192.40319535 391.06208901 -194.44013141 387.09230038 -196.55859375 383.109375 C-198.10184604 380.3292514 -199.77331285 377.70175977 -201.52734375 375.05078125 C-209.91153625 362.00460919 -215.69574046 347.69904851 -221.15234375 333.23828125 C-221.61511719 332.03171875 -222.07789063 330.82515625 -222.5546875 329.58203125 C-225.46642122 321.47010854 -227.4357447 313.19833149 -229.33984375 304.80078125 C-229.59008301 303.70564209 -229.84032227 302.61050293 -230.09814453 301.48217773 C-233.59133943 285.50771952 -234.5009685 270.12589241 -234.46801758 253.82250977 C-234.46486568 250.57338606 -234.48837532 247.32518334 -234.51367188 244.07617188 C-234.56841071 226.29828182 -232.75740911 209.14014364 -228.46484375 191.86328125 C-228.21065674 190.82856689 -227.95646973 189.79385254 -227.69458008 188.7277832 C-221.06542951 162.62190652 -210.45409822 138.97817593 -196.15234375 116.23828125 C-195.47945312 115.14515625 -194.8065625 114.05203125 -194.11328125 112.92578125 C-187.66435922 102.56039058 -180.48521099 93.15251132 -172.15234375 84.23828125 C-170.94363625 82.92612582 -169.73533396 81.61359706 -168.52734375 80.30078125 C-167.21544119 78.8835613 -165.90293899 77.46689621 -164.58984375 76.05078125 C-163.97681396 75.3853833 -163.36378418 74.71998535 -162.73217773 74.03442383 C-158.99799207 70.03475352 -155.11339519 66.3503267 -150.95825195 62.7902832 C-148.75535741 60.89711021 -146.64736419 58.9108913 -144.52734375 56.92578125 C-134.13099172 47.58963559 -122.45149946 40.35516314 -110.33789062 33.48828125 C-108.19351515 32.26182879 -106.07077765 31.00370315 -103.94921875 29.73828125 C-91.5889257 22.47768953 -78.59194359 17.17132642 -65.15234375 12.23828125 C-64.31058594 11.92874512 -63.46882812 11.61920898 -62.6015625 11.30029297 C-42.66375848 4.12946171 -21.17100113 0.14150075 0 0 Z M-73.96435547 42.23535156 C-76.1231897 43.22491762 -78.29405601 44.18260204 -80.46875 45.13671875 C-95.78242391 51.96851465 -110.10991142 60.69184001 -123.15234375 71.23828125 C-123.67151367 71.6559375 -124.19068359 72.07359375 -124.72558594 72.50390625 C-139.128821 84.18452621 -153.04175856 97.3514068 -164.15234375 112.23828125 C-164.92191406 113.24117188 -165.69148438 114.2440625 -166.484375 115.27734375 C-182.08106023 136.02645002 -193.28966456 159.59826462 -201.15234375 184.23828125 C-201.39082031 184.98158691 -201.62929687 185.72489258 -201.875 186.49072266 C-203.51142186 191.69337531 -204.89382006 196.93233672 -206.15234375 202.23828125 C-206.44866699 203.43976807 -206.44866699 203.43976807 -206.75097656 204.66552734 C-214.56836737 237.70711778 -213.05590255 278.05727274 -202.74902344 310.34228516 C-202.20479872 312.07160149 -201.71094374 313.81656447 -201.22265625 315.5625 C-191.52083947 349.7764291 -171.87240957 381.9014544 -147.15234375 407.23828125 C-146.51184082 407.89924805 -145.87133789 408.56021484 -145.21142578 409.24121094 C-134.3245201 420.4691506 -134.3245201 420.4691506 -122.15234375 430.23828125 C-121.19070312 430.96660156 -120.2290625 431.69492187 -119.23828125 432.4453125 C-90.30769133 454.14978457 -56.54865288 467.6950198 -21.15234375 474.23828125 C-20.20576904 474.42592041 -19.25919434 474.61355957 -18.28393555 474.80688477 C-8.20132819 476.61600548 1.82666985 476.59427429 12.03515625 476.55078125 C12.96384521 476.54829376 13.89253418 476.54580627 14.84936523 476.54324341 C53.23455209 476.38444627 87.87881968 468.35213114 121.84765625 450.23828125 C122.49653809 449.89716309 123.14541992 449.55604492 123.81396484 449.20458984 C151.63769325 434.494532 177.0411387 413.39228373 195.62841797 387.90625 C196.86069523 386.22044338 198.1197218 384.5573342 199.3828125 382.89453125 C206.1489956 373.85645302 211.59619023 364.21650395 216.84765625 354.23828125 C217.21665039 353.54412109 217.58564453 352.84996094 217.96582031 352.13476562 C223.09492379 342.43457536 227.23023088 332.59234907 230.84765625 322.23828125 C231.21632813 321.2121875 231.585 320.18609375 231.96484375 319.12890625 C236.7646933 305.36189593 239.57013685 291.7261171 240.84765625 277.23828125 C240.95980469 276.07039062 241.07195312 274.9025 241.1875 273.69921875 C245.49854931 219.48629734 234.24375656 166.61624992 202.58935547 121.71289062 C201.0510061 119.52720108 199.55618803 117.31909751 198.0703125 115.09765625 C191.88504889 106.11842266 184.40068463 98.43385306 176.72265625 90.73828125 C176.21123077 90.22468048 175.6998053 89.71107971 175.17288208 89.18191528 C168.73774208 82.74987152 162.10662379 76.74409136 154.84765625 71.23828125 C154.24791992 70.77905273 153.64818359 70.31982422 153.03027344 69.84667969 C128.93013704 51.65926466 100.20776473 37.08013783 70.78515625 30.17578125 C69.29725586 29.81129883 69.29725586 29.81129883 67.77929688 29.43945312 C64.47788788 28.65320474 61.1699214 27.93130117 57.84765625 27.23828125 C56.87108566 27.03381882 56.87108566 27.03381882 55.87478638 26.82522583 C43.19938798 24.24437704 30.82123 23.7147674 17.91015625 23.80078125 C16.43222595 23.80584183 16.43222595 23.80584183 14.92443848 23.81100464 C-16.11859417 23.96454312 -45.59786994 29.20833448 -73.96435547 42.23535156 Z " fill="#441913" transform="translate(234.15234375,-0.23828125)"/>
<path d="M0 0 C0.98248146 -0.00644889 1.96496292 -0.01289778 2.97721654 -0.0195421 C4.59261194 -0.01489629 4.59261194 -0.01489629 6.24064159 -0.01015663 C7.38659855 -0.01468774 8.5325555 -0.01921886 9.71323842 -0.02388728 C12.89457231 -0.03436813 16.07576429 -0.0358553 19.25711 -0.03349853 C22.68803333 -0.03309068 26.11892283 -0.04412642 29.54983044 -0.05361366 C36.27202843 -0.07023204 42.99419135 -0.0757236 49.71640817 -0.07683842 C55.18059852 -0.07778855 60.64477728 -0.08189708 66.10896397 -0.08823967 C81.59972309 -0.10585479 97.09045449 -0.11507818 112.5812237 -0.11357872 C113.41646878 -0.11349881 114.25171386 -0.1134189 115.1122694 -0.11333656 C116.36666626 -0.11321392 116.36666626 -0.11321392 117.64640447 -0.1130888 C131.19854169 -0.11227594 144.75056777 -0.13141282 158.30267284 -0.1596133 C172.2166839 -0.18833845 186.13064074 -0.20215378 200.0446822 -0.20042574 C207.85682822 -0.19976169 215.66885774 -0.2052607 223.48097706 -0.22678185 C230.13274817 -0.24498888 236.78434997 -0.24934504 243.43613521 -0.235763 C246.82947026 -0.22923067 250.22248045 -0.22912513 253.61578465 -0.2464695 C257.29620437 -0.26186098 260.97576819 -0.2526528 264.65616894 -0.23720741 C266.26152609 -0.2526381 266.26152609 -0.2526381 267.8993147 -0.26838052 C274.18505498 -0.21000084 278.04324513 0.47743604 283.13888073 4.25726891 C286.97378295 10.00962224 285.40388333 17.49855711 284.22091198 24.05414391 C283.81230834 26.0415709 283.38872525 28.02596813 282.95138073 30.00726891 C282.7236195 31.05785484 282.49585827 32.10844078 282.26119518 33.19086266 C279.05981291 47.54576807 274.07925643 60.33026167 267.13888073 73.25726891 C266.58329479 74.31945641 266.02770885 75.38164391 265.45528698 76.47601891 C260.98003315 84.63235683 255.27869016 91.33635946 249.13888073 98.25726891 C248.47372448 99.03328453 247.80856823 99.80930016 247.12325573 100.60883141 C232.3456166 117.84941039 213.55002828 131.50847265 192.13888073 139.25726891 C190.70415417 139.85281578 190.70415417 139.85281578 189.24044323 140.46039391 C175.56927649 146.06388447 161.18079119 149.37723502 146.37716198 149.39008141 C145.30839069 149.39151649 145.30839069 149.39151649 144.21802807 149.39298058 C142.71972089 149.39365618 141.22141068 149.39184553 139.72310925 149.38764 C137.47426002 149.382323 135.22561416 149.38758561 132.97677135 149.39398766 C100.39524343 149.41351005 72.28982133 139.73884211 46.13888073 120.25726891 C44.86850964 119.32334312 44.86850964 119.32334312 43.57247448 118.37055016 C28.26178661 106.64792076 15.85683826 91.85877969 6.13888073 75.25726891 C5.78438854 74.65994957 5.42989635 74.06263023 5.06466198 73.44721031 C-1.10593538 62.92507821 -5.12906701 52.42034737 -8.22781849 40.63812828 C-8.82294476 38.40078386 -9.46149646 36.18125434 -10.11502552 33.96039391 C-12.59364942 25.27322868 -14.35533854 16.27751904 -12.86111927 7.25726891 C-9.48949038 1.95582611 -6.21927461 0.01032895 0 0 Z " fill="#42150E" transform="translate(113.8611192703247,249.74273109436035)"/>
<path d="M0 0 C79.86 0 159.72 0 242 0 C240.77886476 10.99021718 238.19562757 19.01819443 233.40234375 28.921875 C232.04363296 31.90422626 230.97786308 34.87458117 230 38 C229.34 38 228.68 38 228 38 C227.62101562 39.07314453 227.62101562 39.07314453 227.234375 40.16796875 C225.89329972 43.24480285 224.25668029 45.62525953 222.25 48.3125 C221.54101562 49.26382813 220.83203125 50.21515625 220.1015625 51.1953125 C219.06128906 52.58363281 219.06128906 52.58363281 218 54 C217.40960938 54.82242188 216.81921875 55.64484375 216.2109375 56.4921875 C215.68757812 57.21664062 215.16421875 57.94109375 214.625 58.6875 C214.16351563 59.33074219 213.70203125 59.97398437 213.2265625 60.63671875 C212.82179688 61.08660156 212.41703125 61.53648437 212 62 C211.34 62 210.68 62 210 62 C209.34 63.32 208.68 64.64 208 66 C204.55251042 65.35952602 202.15355815 64.00294981 199.25 62.0625 C198.05117188 61.27552734 198.05117188 61.27552734 196.828125 60.47265625 C196.22484375 59.98667969 195.6215625 59.50070312 195 59 C195 58.34 195 57.68 195 57 C194.13375 56.731875 193.2675 56.46375 192.375 56.1875 C189.08208036 55.02888013 186.08872125 53.61790161 183 52 C183 51.34 183 50.68 183 50 C180.77595489 49.32786843 178.5507592 48.65992678 176.32421875 47.99609375 C173.82391626 47.24688443 171.32746418 46.4877414 168.83203125 45.72265625 C167.34642353 45.27320816 165.86074619 44.82399013 164.375 44.375 C163.67125244 44.15690674 162.96750488 43.93881348 162.24243164 43.71411133 C158.67135714 42.64283061 155.24795038 41.83864343 151.5390625 41.4140625 C148 41 148 41 147 40 C128.73066833 36.49454 104.49251874 34.78086528 87 42 C84.92376281 42.48947561 82.83956724 42.94598257 80.75 43.375 C75.78281635 44.47632126 71.44938548 45.94316023 66.87890625 48.1484375 C64.63045622 49.16748554 62.44474126 49.68454951 60 50 C60 50.66 60 51.32 60 52 C58.65808594 52.63615234 58.65808594 52.63615234 57.2890625 53.28515625 C49.70156571 56.94427759 42.74040239 60.89034012 36 66 C28.14694693 62.75905747 21.65444869 53.49253803 18 46 C18 45.34 18 44.68 18 44 C17.34 44 16.68 44 16 44 C13.66227439 39.05191081 11.33167422 34.10058098 9.00878906 29.14550781 C8.16549957 27.35198699 7.31419159 25.56223922 6.4609375 23.7734375 C2.7337996 15.83897829 0 8.84522998 0 0 Z " fill="#8E1C0F" transform="translate(129,274)"/>
<path d="M0 0 C13.6380872 11.46596365 25.58123989 23.88378514 35.48242188 38.72607422 C36.48475465 40.22796088 37.49891854 41.72202648 38.52539062 43.20751953 C56.60179061 69.37653119 67.31603448 99.87911439 73 131 C73.13277344 131.71478516 73.26554688 132.42957031 73.40234375 133.16601562 C78.48582739 162.03906035 76.1853749 195.98734778 69.0625 224.25 C68.90587891 224.89195312 68.74925781 225.53390625 68.58789062 226.1953125 C67.39167232 230.94205923 65.78673627 235.44655057 64 240 C63.71600342 240.7415332 63.43200684 241.48306641 63.1394043 242.24707031 C58.69364445 253.82459502 53.91563511 265.09338573 48 276 C47.45569336 277.00595215 47.45569336 277.00595215 46.90039062 278.03222656 C37.35158385 295.44523995 25.61461038 311.1304451 11.68945312 325.27539062 C10.04784472 326.95115966 8.43604693 328.6513334 6.828125 330.359375 C-11.09333961 349.16084917 -33.59238628 363.04492152 -57 374 C-57.91136719 374.44472656 -58.82273437 374.88945312 -59.76171875 375.34765625 C-81.91996142 385.90081623 -107.23761623 393.88437085 -132 393 C-132 392.34 -132 391.68 -132 391 C-130.72125 390.67386719 -129.4425 390.34773438 -128.125 390.01171875 C-126.41660776 389.57054053 -124.70827772 389.12912143 -123 388.6875 C-122.16082031 388.47416016 -121.32164062 388.26082031 -120.45703125 388.04101562 C-115.15941611 386.66527836 -110.08078195 385.03163714 -105 383 C-103.8965625 382.56558594 -102.793125 382.13117188 -101.65625 381.68359375 C-100.6146875 381.27238281 -99.573125 380.86117188 -98.5 380.4375 C-93.69786275 378.58149352 -89.02892962 377.0846711 -84 376 C-84 375.34 -84 374.68 -84 374 C-83.32420898 373.67725098 -82.64841797 373.35450195 -81.95214844 373.02197266 C-78.88458735 371.55668798 -75.81729101 370.09084994 -72.75 368.625 C-71.68652344 368.11710937 -70.62304688 367.60921875 -69.52734375 367.0859375 C-68.50253906 366.59609375 -67.47773438 366.10625 -66.421875 365.6015625 C-65.00793457 364.92601318 -65.00793457 364.92601318 -63.56542969 364.23681641 C-61.36679608 363.17683564 -59.179476 362.09870703 -57 361 C-57 360.34 -57 359.68 -57 359 C-56.030625 358.649375 -55.06125 358.29875 -54.0625 357.9375 C-49.86911297 356.16468597 -46.60407566 353.50425432 -43.11328125 350.62109375 C-41.13965274 349.10712733 -39.25841067 348.02469649 -37 347 C-37 346.34 -37 345.68 -37 345 C-35.48142457 343.85590822 -33.90797859 342.78414962 -32.3125 341.75 C-29.21082227 339.65462502 -26.5696978 337.80938762 -24.3125 334.8125 C-22.00426246 332.00518408 -19.99578905 330.84458991 -16.82421875 329.1796875 C-11.10897627 325.48374911 -7.11436896 318.95745715 -3.26171875 313.46875 C-2.84535156 312.9840625 -2.42898438 312.499375 -2 312 C-1.34 312 -0.68 312 0 312 C0.3403125 310.9171875 0.3403125 310.9171875 0.6875 309.8125 C2.25737049 306.4484918 4.28969392 304.50703313 7 302 C9.15960388 300.12113699 9.15960388 300.12113699 9.9375 297.4375 C10.288125 296.633125 10.63875 295.82875 11 295 C11.99 294.67 12.98 294.34 14 294 C14.72904086 292.35965807 15.38655243 290.68698082 16 289 C18.01538981 285.49497424 20.21941702 282.12899501 22.4375 278.75 C25.03004165 274.68998194 27.18453132 270.69948932 29.03125 266.2578125 C30.12251544 263.71445998 31.36103163 261.27429886 32.625 258.8125 C34.41766173 255.27681948 35.89406045 251.82051845 37 248 C37.66 248 38.32 248 39 248 C39.33 245.03 39.66 242.06 40 239 C40.99 238.67 41.98 238.34 43 238 C43.83281569 234.98104313 44.44519741 232.07589083 45 229 C45.36680064 227.08227055 45.73395294 225.1645955 46.109375 223.24853516 C46.48667309 221.3181838 46.8529162 219.38568181 47.21875 217.453125 C48 214 48 214 48.96826172 211.65283203 C55.35386271 195.23401036 55.48785527 175.13780237 55.4375 157.75 C55.43735901 156.95281555 55.43721802 156.1556311 55.43707275 155.33428955 C55.38619886 137.87463952 53.63700654 120.99044509 49.59594727 103.99755859 C49.05324949 101.71102507 48.53045951 99.42054087 48.00976562 97.12890625 C47.66519556 95.64296597 47.31953423 94.15727822 46.97265625 92.671875 C46.81942398 92.00202576 46.66619171 91.33217651 46.50831604 90.64202881 C45.43021633 86.15447986 43.86380464 82.19759815 42 78 C41.43370338 75.30684888 41.24140228 72.75198603 41 70 C40.34 70 39.68 70 39 70 C38.75765625 69.14277344 38.5153125 68.28554687 38.265625 67.40234375 C36.39985806 61.03720808 34.52621177 55.60045399 31 50 C29.99045515 48.17190528 28.9912636 46.3380717 28 44.5 C26.25575488 41.28155787 24.48212984 38.0919865 22.625 34.9375 C21 32 21 32 21 30 C20.34 30 19.68 30 19 30 C19 29.01 19 28.02 19 27 C18.34 27 17.68 27 17 27 C15.921875 25.53125 15.921875 25.53125 14.75 23.5 C11.4076683 17.94583115 7.83305365 12.79231913 3.1875 8.25 C0.48174417 5.46693686 0 3.76727648 0 0 Z " fill="#FBB651" transform="translate(401,82)"/>
<path d="M0 0 C0.66485413 0.00215515 1.32970825 0.0043103 2.01470947 0.00653076 C23.3532144 0.11759191 50.71420898 5.37668987 67.375 20.3125 C67.375 20.9725 67.375 21.6325 67.375 22.3125 C45.65377981 40.26108721 12.43532228 42.96896466 -14.25390625 40.92578125 C-19.27086864 40.43288043 -24.01830864 39.45586294 -28.875 38.125 C-29.68638428 37.90577881 -30.49776855 37.68655762 -31.33374023 37.46069336 C-55.33753679 30.76146693 -55.33753679 30.76146693 -63.625 23.3125 C-63.625 21.9925 -63.625 20.6725 -63.625 19.3125 C-61.98046875 17.828125 -61.98046875 17.828125 -59.8125 16.5625 C-59.10480469 16.13453125 -58.39710938 15.7065625 -57.66796875 15.265625 C-55.625 14.3125 -55.625 14.3125 -52.625 14.3125 C-52.625 13.6525 -52.625 12.9925 -52.625 12.3125 C-43.4655672 8.13646681 -34.43857255 4.69023784 -24.625 2.3125 C-23.92133301 2.13372314 -23.21766602 1.95494629 -22.49267578 1.77075195 C-15.01163431 0.04465348 -7.65226501 -0.03360889 0 0 Z " fill="#FC533F" transform="translate(248.625,334.6875)"/>
<path d="M0 0 C13.87522004 -0.42968423 23.12317943 3.67527733 33.28515625 13.0703125 C40.96551407 21.14964994 44.58368848 31.20256785 44.50390625 42.19921875 C44.0959843 46.37215005 43.03138189 48.09829431 40.21484375 51.15625 C35.98561307 53.97573712 32.18211807 53.9497443 27.21484375 53.15625 C22.38278587 49.43153872 20.13598311 45.75083796 19.27734375 39.78125 C18.13205134 32.97669794 18.13205134 32.97669794 13.62890625 27.9765625 C8.13510365 24.72512831 2.47054766 23.95602774 -3.78515625 25.15625 C-8.12825078 27.24207829 -10.9615991 29.94836618 -13.66015625 33.90625 C-14.64441949 36.74967715 -15.17050923 39.26775231 -15.66015625 42.21875 C-16.48599077 46.90553734 -17.98712124 49.13729909 -21.78515625 52.15625 C-22.11515625 52.48625 -22.44515625 52.81625 -22.78515625 53.15625 C-28.0686294 53.50848154 -31.54038921 53.67334269 -35.78515625 50.15625 C-40.1483288 44.04992135 -39.47893623 37.71343219 -38.38671875 30.5390625 C-35.45596978 18.62575824 -26.85350071 10.14367654 -16.71875 3.87890625 C-11.26417169 0.8794219 -6.11363157 0.34298073 0 0 Z " fill="#43180E" transform="translate(342.78515625,142.84375)"/>
<path d="M0 0 C1.19882813 0.00483398 1.19882813 0.00483398 2.421875 0.00976562 C3.246875 0.01814453 4.071875 0.02652344 4.921875 0.03515625 C5.76234375 0.03966797 6.6028125 0.04417969 7.46875 0.04882812 C9.53648901 0.06057664 11.60419124 0.07851103 13.671875 0.09765625 C13.671875 0.75765625 13.671875 1.41765625 13.671875 2.09765625 C14.620625 2.13890625 15.569375 2.18015625 16.546875 2.22265625 C25.3422499 3.51975194 33.36808912 10.26065603 38.671875 17.09765625 C44.19724639 26.46310056 46.73687818 34.18502091 45.671875 45.09765625 C44.47735502 48.34080895 42.65028732 50.32890371 39.921875 52.47265625 C36.46991656 53.43153359 33.19181871 53.67148405 29.671875 53.09765625 C26.07470601 50.90807513 24.29976913 48.91906873 22.671875 45.09765625 C22.33579223 43.48125815 22.04600604 41.8547188 21.796875 40.22265625 C20.61796279 34.10311194 18.59817863 30.59152437 13.609375 26.72265625 C8.83571018 24.29484818 3.88196939 24.21686665 -1.328125 25.09765625 C-5.77178356 26.98153739 -8.64807975 29.07758838 -11.328125 33.09765625 C-11.67862068 35.02538249 -11.9634119 36.96554489 -12.203125 38.91015625 C-13.0078745 44.06928678 -13.77963217 47.24500689 -17.328125 51.09765625 C-21.29099722 53.5194115 -25.79360691 53.84117035 -30.328125 53.09765625 C-34.42283117 50.69424176 -35.84916808 48.51515201 -37.328125 44.09765625 C-38.75519927 34.58883508 -35.81287434 26.49446521 -30.68359375 18.55078125 C-23.37796089 8.72198399 -12.84756279 -0.09176831 0 0 Z " fill="#43180E" transform="translate(156.328125,142.90234375)"/>
<path d="M0 0 C1.67180274 0.94934513 3.33733936 1.90973313 5 2.875 C6.3921875 3.67550781 6.3921875 3.67550781 7.8125 4.4921875 C8.534375 4.98976563 9.25625 5.48734375 10 6 C10 6.66 10 7.32 10 8 C-11.72122019 25.94858721 -44.93967772 28.65646466 -71.62890625 26.61328125 C-76.64586864 26.12038043 -81.39330864 25.14336294 -86.25 23.8125 C-87.06138428 23.59327881 -87.87276855 23.37405762 -88.70874023 23.14819336 C-112.71253679 16.44896693 -112.71253679 16.44896693 -121 9 C-121 7.68 -121 6.36 -121 5 C-118.21596215 2.62537948 -116.67437011 1.97190125 -113 2.125 C-110 3 -110 3 -107.94921875 4.36328125 C-103.77066645 6.68223941 -99.40323912 7.79753947 -94.8125 9.0625 C-93.91724609 9.31837891 -93.02199219 9.57425781 -92.09960938 9.83789062 C-79.39900293 13.40506457 -67.24678966 15.17416454 -54.0625 15.125 C-53.02931641 15.12886719 -51.99613281 15.13273437 -50.93164062 15.13671875 C-39.55719054 15.20477758 -39.55719054 15.20477758 -28.5625 12.625 C-25.47886287 11.51190819 -22.41253282 10.55093788 -19.25 9.6875 C-12.90921774 7.81022903 -6.81262594 5.14740982 -1 2 C-0.67 1.34 -0.34 0.68 0 0 Z " fill="#DC250F" transform="translate(306,349)"/>
<path d="M0 0 C5.66129431 4.69766975 10.85228904 9.74723372 16 15 C15.01 15.495 15.01 15.495 14 16 C15.25541557 18.51083114 16.50063488 18.87125446 19 20 C18.34 21.32 17.68 22.64 17 24 C17.66 24 18.32 24 19 24 C19 24.99 19 25.98 19 27 C18.34 27 17.68 27 17 27 C15.921875 25.53125 15.921875 25.53125 14.75 23.5 C11.4076683 17.94583115 7.83305365 12.79231913 3.1875 8.25 C0.48174417 5.46693686 0 3.76727648 0 0 Z " fill="#F8B858" transform="translate(401,82)"/>
<path d="M0 0 C2.32985261 -0.00220375 4.65924317 -0.02048466 6.98901367 -0.03930664 C14.44266305 -0.06641732 21.41581433 0.09778276 28.63549805 2.18530273 C28.63549805 2.84530273 28.63549805 3.50530273 28.63549805 4.18530273 C29.58424805 4.14405273 30.53299805 4.10280273 31.51049805 4.06030273 C34.63549805 4.18530273 34.63549805 4.18530273 36.63549805 6.18530273 C34.82256716 6.04492753 33.01015375 5.89785384 31.19799805 5.74780273 C29.68399414 5.62598633 29.68399414 5.62598633 28.1394043 5.50170898 C25.63549805 5.18530273 25.63549805 5.18530273 24.63549805 4.18530273 C7.6846327 0.93282577 -10.26204166 1.34703445 -27.36450195 3.18530273 C-27.36450195 2.52530273 -27.36450195 1.86530273 -27.36450195 1.18530273 C-18.23361352 0.21824094 -9.17092104 -0.00097016 0 0 Z " fill="#741B12" transform="translate(251.364501953125,309.814697265625)"/>
<path d="M0 0 C4.19713879 0.48870794 5.92082906 2.72395694 8.625 5.8125 C9.40101563 6.68519531 10.17703125 7.55789062 10.9765625 8.45703125 C12.68902838 10.60918431 13.91287813 12.49260602 15 15 C13.35 14.67 11.7 14.34 10 14 C10 14.66 10 15.32 10 16 C9.01 16 8.02 16 7 16 C7 15.34 7 14.68 7 14 C6.34 14 5.68 14 5 14 C5 12.02 5 10.04 5 8 C4.34 8 3.68 8 3 8 C3.33 6.68 3.66 5.36 4 4 C2.68 3.34 1.36 2.68 0 2 C0 1.34 0 0.68 0 0 Z " fill="#F3B152" transform="translate(415,98)"/>
<path d="M0 0 C0.33 0 0.66 0 1 0 C4.13190203 17.76608709 4.3427018 35.02836601 4 53 C3.67 53 3.34 53 3 53 C2.95101563 51.7625 2.90203125 50.525 2.8515625 49.25 C2.38400988 38.19610591 1.67284549 27.19200153 0.66064453 16.17382812 C0.17469367 10.75396025 -0.09660039 5.4418217 0 0 Z " fill="#D3944C" transform="translate(472,208)"/>
<path d="M0 0 C6.20726378 -0.04979601 12.41440878 -0.08590567 18.62182617 -0.10986328 C20.72926868 -0.1198611 22.83669753 -0.13346378 24.9440918 -0.15087891 C27.99010611 -0.17540282 31.0359355 -0.18654559 34.08203125 -0.1953125 C35.00957718 -0.20563507 35.93712311 -0.21595764 36.89277649 -0.22659302 C43.44998794 -0.2276935 49.59045171 0.63521271 56 2 C56 2.33 56 2.66 56 3 C49.73 3 43.46 3 37 3 C37 2.34 37 1.68 37 1 C24.79 1 12.58 1 0 1 C0 0.67 0 0.34 0 0 Z " fill="#C59E50" transform="translate(229,24)"/>
<path d="M0 0 C0.66 0.33 1.32 0.66 2 1 C-0.75 5.875 -0.75 5.875 -3 7 C-3.73075648 9.3140622 -4.40138258 11.64828869 -5 14 C-7.31 13.67 -9.62 13.34 -12 13 C-12.2475 13.639375 -12.495 14.27875 -12.75 14.9375 C-14 17 -14 17 -16.125 17.75 C-17.053125 17.87375 -17.053125 17.87375 -18 18 C-14.65348519 13.7122779 -11.07466717 10.20568225 -6.9375 6.6796875 C-4.49654333 4.56353555 -2.24804455 2.31829594 0 0 Z " fill="#5E3E39" transform="translate(90,56)"/>
<path d="M0 0 C0 0.33 0 0.66 0 1 C-1.07314453 1.03758423 -1.07314453 1.03758423 -2.16796875 1.07592773 C-5.4454547 1.19279152 -8.72271616 1.31510423 -12 1.4375 C-13.12535156 1.47681641 -14.25070313 1.51613281 -15.41015625 1.55664062 C-25.27157302 1.15014942 -25.27157302 1.15014942 -34 4 C-36.0572917 4.31923492 -38.11613521 4.51161352 -40.1875 4.71875 C-42.0167533 4.81998043 -42.0167533 4.81998043 -43 6 C-44.99958364 6.04080783 -47.00045254 6.04254356 -49 6 C-38.68725171 -4.31274829 -13.36531788 -0.34152164 0 0 Z " fill="#E05647" transform="translate(264,335)"/>
<path d="M0 0 C0.66 0 1.32 0 2 0 C3.97390122 6.33895106 4.31286884 15.17477762 2.140625 21.50390625 C0.97005131 23.53544537 -0.33617328 25.33617328 -2 27 C-4.01964199 27.07244053 -6.04167124 27.08377188 -8.0625 27.0625 C-9.16722656 27.05347656 -10.27195313 27.04445312 -11.41015625 27.03515625 C-12.69212891 27.01775391 -12.69212891 27.01775391 -14 27 C-14 26.34 -14 25.68 -14 25 C-13.25234375 24.92523438 -12.5046875 24.85046875 -11.734375 24.7734375 C-5.48479042 23.97112393 -5.48479042 23.97112393 -0.3125 20.625 C2.11766477 13.91311635 1.55562839 6.89282497 0 0 Z " fill="#D9B361" transform="translate(200,171)"/>
<path d="M0 0 C-0.33 0.99 -0.66 1.98 -1 3 C-1.66 3 -2.32 3 -3 3 C-3.33 3.99 -3.66 4.98 -4 6 C-6.98117739 9.31241933 -9.88195369 12.20495417 -14 14 C-16.15234375 13.06640625 -16.15234375 13.06640625 -18 12 C-15.71000939 10.18534687 -13.41810968 8.37320402 -11.125 6.5625 C-10.47402344 6.04623047 -9.82304688 5.52996094 -9.15234375 4.99804688 C-8.52714844 4.50498047 -7.90195313 4.01191406 -7.2578125 3.50390625 C-6.6817627 3.04830322 -6.10571289 2.5927002 -5.51220703 2.12329102 C-3.57608588 0.68510996 -2.44126577 0 0 0 Z " fill="#755857" transform="translate(111,42)"/>
<path d="M0 0 C0.91330078 0.00902344 1.82660156 0.01804687 2.76757812 0.02734375 C4.99117319 0.05062747 7.21418677 0.0833229 9.4375 0.125 C5.62809053 2.18439493 2.01033289 2.76794096 -2.25 3.25 C-2.96027344 3.33491699 -3.67054688 3.41983398 -4.40234375 3.50732422 C-9.48495275 4.08352328 -14.44494803 4.30776971 -19.5625 4.125 C-19.5625 3.465 -19.5625 2.805 -19.5625 2.125 C-12.88623009 0.39990076 -6.87802429 -0.13120222 0 0 Z " fill="#D3984B" transform="translate(288.5625,470.875)"/>
<path d="M0 0 C-1.46755941 2.93511881 -3.69266791 3.60761752 -6.5625 5.125 C-7.57441406 5.66382813 -8.58632812 6.20265625 -9.62890625 6.7578125 C-10.41136719 7.16773438 -11.19382813 7.57765625 -12 8 C-10.86516076 11.40451771 -10.44722063 11.6005564 -7.4375 13.1875 C-6.303125 13.785625 -5.16875 14.38375 -4 15 C-5.765625 15.65234375 -5.765625 15.65234375 -8 16 C-9.921875 15.00390625 -9.921875 15.00390625 -11.75 13.5625 C-12.67039063 12.85287109 -12.67039063 12.85287109 -13.609375 12.12890625 C-14.06828125 11.75636719 -14.5271875 11.38382812 -15 11 C-14.91776321 8.20394902 -14.41865393 6.47169095 -12.55078125 4.3671875 C-4.93832428 -2.46916214 -4.93832428 -2.46916214 0 0 Z " fill="#5A1007" transform="translate(197,347)"/>
<path d="M0 0 C1.67180274 0.94934513 3.33733936 1.90973313 5 2.875 C6.3921875 3.67550781 6.3921875 3.67550781 7.8125 4.4921875 C8.534375 4.98976563 9.25625 5.48734375 10 6 C10 6.66 10 7.32 10 8 C4.7792663 11.86565393 -0.66394325 14.62259636 -7 16 C-7 15.34 -7 14.68 -7 14 C-5.5437455 13.32880451 -4.08492133 12.66318193 -2.625 12 C-1.81289063 11.62875 -1.00078125 11.2575 -0.1640625 10.875 C2 10 2 10 4 10 C4 9.34 4 8.68 4 8 C3.34 8 2.68 8 2 8 C2 6.68 2 5.36 2 4 C1.06716704 1.79932579 1.06716704 1.79932579 0 0 Z " fill="#C82715" transform="translate(306,349)"/>
<path d="M0 0 C4.06800999 1.45183396 6.57500421 3.36250631 9 7 C8.01 7 7.02 7 6 7 C5.67 7.66 5.34 8.32 5 9 C4.7525 8.195625 4.505 7.39125 4.25 6.5625 C3.30804786 3.88186118 3.30804786 3.88186118 1.23046875 3.34765625 C-4.41688117 2.46742132 -10.46560241 2.52416064 -16 4 C-11.29203797 -0.9219603 -6.59226843 -0.67193921 0 0 Z " fill="#F2CC75" transform="translate(166,167)"/>
<path d="M0 0 C0.99 0 1.98 0 3 0 C3 0.66 3 1.32 3 2 C3.99 2.33 4.98 2.66 6 3 C-1 7 -8 11 -15 15 C-14.9375 13.25 -14.9375 13.25 -14 11 C-11.29950956 8.99159505 -8.44873267 7 -5 7 C-5 6.34 -5 5.68 -5 5 C-3.68 5 -2.36 5 -1 5 C-0.67 3.35 -0.34 1.7 0 0 Z " fill="#502509" transform="translate(134,50)"/>
<path d="M0 0 C0.99 0.33 1.98 0.66 3 1 C2.67 1.66 2.34 2.32 2 3 C2.66 3.33 3.32 3.66 4 4 C5.125 6.0625 5.125 6.0625 6 8 C6.99 8 7.98 8 9 8 C8.67 10.31 8.34 12.62 8 15 C8.66 15 9.32 15 10 15 C10.33 17.31 10.66 19.62 11 22 C7.92815242 18.29827831 5.93178248 14.15955301 3.8125 9.875 C3.44447266 9.14667969 3.07644531 8.41835938 2.69726562 7.66796875 C0 2.25342069 0 2.25342069 0 0 Z " fill="#6B4C4A" transform="translate(21,351)"/>
<path d="M0 0 C3.96987074 1.82223575 5.84672528 3.1248942 7.58203125 7.234375 C6.92203125 7.234375 6.26203125 7.234375 5.58203125 7.234375 C5.58203125 6.574375 5.58203125 5.914375 5.58203125 5.234375 C4.74671875 5.0796875 4.74671875 5.0796875 3.89453125 4.921875 C1.58203125 4.234375 1.58203125 4.234375 -0.60546875 2.609375 C-4.61907813 0.64716597 -8.14230604 1.16946275 -12.41796875 2.234375 C-13.40796875 2.894375 -14.39796875 3.554375 -15.41796875 4.234375 C-17.60546875 3.859375 -17.60546875 3.859375 -19.41796875 3.234375 C-13.66099558 -1.74462882 -7.24711842 -2.2947257 0 0 Z " fill="#EFC772" transform="translate(352.41796875,167.765625)"/>
<path d="M0 0 C0.66 0.33 1.32 0.66 2 1 C1.731875 1.515625 1.46375 2.03125 1.1875 2.5625 C-0.32349407 5.66401415 -1.65572726 8.82262806 -3 12 C-3.99 12 -4.98 12 -6 12 C-6.33 13.65 -6.66 15.3 -7 17 C-8.32 17.33 -9.64 17.66 -11 18 C-11 18.66 -11 19.32 -11 20 C-11.66 19.67 -12.32 19.34 -13 19 C-11.84371094 17.44539063 -11.84371094 17.44539063 -10.6640625 15.859375 C-9.65088026 14.48970271 -8.63786834 13.11990443 -7.625 11.75 C-7.11710937 11.06808594 -6.60921875 10.38617188 -6.0859375 9.68359375 C-5.59609375 9.01972656 -5.10625 8.35585938 -4.6015625 7.671875 C-4.15119629 7.0644043 -3.70083008 6.45693359 -3.23681641 5.83105469 C-1.96851836 3.95339275 -0.96787304 2.04636015 0 0 Z " fill="#F2CC6E" transform="translate(379,325)"/>
<path d="M0 0 C-0.99 0 -1.98 0 -3 0 C-3 0.66 -3 1.32 -3 2 C-3.94101563 2.45890625 -4.88203125 2.9178125 -5.8515625 3.390625 C-7.10948286 4.01019772 -8.36728931 4.63000177 -9.625 5.25 C-10.55119141 5.70052734 -10.55119141 5.70052734 -11.49609375 6.16015625 C-14.58471425 7.6882106 -17.49636977 9.27688575 -20.3359375 11.234375 C-23 13 -23 13 -25 13 C-25 12.34 -25 11.68 -25 11 C-24.01 11 -23.02 11 -22 11 C-21.67 10.01 -21.34 9.02 -21 8 C-18.41844877 6.10443623 -15.52466908 4.72803221 -12.6875 3.25 C-11.91470703 2.82589844 -11.14191406 2.40179688 -10.34570312 1.96484375 C-9.22131836 1.37123047 -9.22131836 1.37123047 -8.07421875 0.765625 C-7.38932373 0.40243164 -6.70442871 0.03923828 -5.9987793 -0.33496094 C-3.60355907 -1.13190486 -2.34911112 -0.82148242 0 0 Z " fill="#7E1D16" transform="translate(192,324)"/>
<path d="M0 0 C0.66 0 1.32 0 2 0 C2.05451714 2.04136395 2.09302485 4.08315856 2.125 6.125 C2.14820313 7.26195312 2.17140625 8.39890625 2.1953125 9.5703125 C1.9950194 13.08745934 1.23919433 15.71977972 0 19 C-0.38517422 20.28866931 -0.76234747 21.5798124 -1.125 22.875 C-1.41375 23.90625 -1.7025 24.9375 -2 26 C-3.10345222 22.65078938 -2.86110028 20.36087047 -2.125 16.9375 C-1.00208669 11.30775895 -0.42047954 5.72073479 0 0 Z " fill="#D4AC5A" transform="translate(399,257)"/>
<path d="M0 0 C0.99 0.33 1.98 0.66 3 1 C3.33 2.65 3.66 4.3 4 6 C1.03 6.66 -1.94 7.32 -5 8 C-5 6.35 -5 4.7 -5 3 C-3.35 2.67 -1.7 2.34 0 2 C0 1.34 0 0.68 0 0 Z " fill="#542E2B" transform="translate(329,481)"/>
<path d="M0 0 C1.43861294 0.08746284 2.87597508 0.19565348 4.3125 0.3125 C5.11300781 0.37050781 5.91351563 0.42851562 6.73828125 0.48828125 C9.39066259 1.08838825 10.36503879 1.85708967 12 4 C12 4.66 12 5.32 12 6 C13.32 6.33 14.64 6.66 16 7 C15.67 8.65 15.34 10.3 15 12 C13.68 11.67 12.36 11.34 11 11 C11.99 10.67 12.98 10.34 14 10 C14 9.34 14 8.68 14 8 C13.44828125 7.72414063 12.8965625 7.44828125 12.328125 7.1640625 C8.21875 5.109375 4.109375 3.0546875 0 1 C0 0.67 0 0.34 0 0 Z " fill="#67160A" transform="translate(302,347)"/>
<path d="M0 0 C0.66 0 1.32 0 2 0 C1.83886719 0.71285156 1.67773438 1.42570313 1.51171875 2.16015625 C0.30510618 8.85639548 0.27067265 15.6884305 3 22 C0 21 0 21 -1.171875 18.78125 C-2.03691842 15.87600984 -2.26699234 13.52463715 -2.25 10.5 C-2.25515625 9.5821875 -2.2603125 8.664375 -2.265625 7.71875 C-1.98262598 4.8221718 -1.20350245 2.63624347 0 0 Z " fill="#F3CC71" transform="translate(119,171)"/>
<path d="M0 0 C3.28788824 3.11016455 5.83735988 6.01618925 8 10 C7.01 10.495 7.01 10.495 6 11 C6 10.34 6 9.68 6 9 C4.02463255 9.34786708 4.02463255 9.34786708 2 10 C1.67 10.66 1.34 11.32 1 12 C0.34 11.67 -0.32 11.34 -1 11 C-0.67 9.35 -0.34 7.7 0 6 C0.66 6 1.32 6 2 6 C1.34 4.02 0.68 2.04 0 0 Z " fill="#EEC765" transform="translate(130,340)"/>
<path d="M0 0 C0.66 0.33 1.32 0.66 2 1 C0.6875 3 0.6875 3 -1 5 C-1.99 5 -2.98 5 -4 5 C-4.0825 5.5775 -4.165 6.155 -4.25 6.75 C-5.21797787 9.6539336 -6.68694284 11.03740604 -9 13 C-9.66 13 -10.32 13 -11 13 C-11 13.99 -11 14.98 -11 16 C-11.66 16 -12.32 16 -13 16 C-11.09744619 9.23536425 -5.59452852 3.96792551 0 0 Z " fill="#633717" transform="translate(322,149)"/>
<path d="M0 0 C0.12375 0.639375 0.2475 1.27875 0.375 1.9375 C0.684375 2.9584375 0.684375 2.9584375 1 4 C1.66 4.33 2.32 4.66 3 5 C1.7260411 7.03833424 0.38938077 9.03852126 -1 11 C-1.66 11 -2.32 11 -3 11 C-3.12375 11.78375 -3.2475 12.5675 -3.375 13.375 C-4 16 -4 16 -6 18 C-5.41347648 13.51006131 -4.2356462 9.77456816 -2.4375 5.625 C-1.98246094 4.56539062 -1.52742188 3.50578125 -1.05859375 2.4140625 C-0.70925781 1.61742187 -0.35992187 0.82078125 0 0 Z " fill="#745553" transform="translate(20,149)"/>
<path d="M0 0 C-2 2 -4 4 -6 6 C-6.33 4.68 -6.66 3.36 -7 2 C-7.78375 2.165 -8.5675 2.33 -9.375 2.5 C-13.93966142 3.12960847 -18.40072601 3.08180527 -23 3 C-23 2.67 -23 2.34 -23 2 C-15.27279225 0.76892281 -7.8316181 -0.2700558 0 0 Z " fill="#9C8383" transform="translate(231,0)"/>
<path d="M0 0 C0.66 0.33 1.32 0.66 2 1 C-0.3125 3.5 -0.3125 3.5 -3 6 C-3.99 6 -4.98 6 -6 6 C-6.66 7.32 -7.32 8.64 -8 10 C-10.31 10 -12.62 10 -15 10 C-15.33 8.68 -15.66 7.36 -16 6 C-15.29488281 6.40992188 -14.58976563 6.81984375 -13.86328125 7.2421875 C-10.90550667 8.37368991 -10.90550667 8.37368991 -8.10546875 6.4453125 C-7.14253906 5.67960937 -6.17960938 4.91390625 -5.1875 4.125 C-4.21167969 3.36445313 -3.23585937 2.60390625 -2.23046875 1.8203125 C-1.49441406 1.21960938 -0.75835937 0.61890625 0 0 Z " fill="#541209" transform="translate(176,331)"/>
<path d="M0 0 C0 0.33 0 0.66 0 1 C-1.98 1 -3.96 1 -6 1 C-6 1.66 -6 2.32 -6 3 C-14.91 3 -23.82 3 -33 3 C-33 2.67 -33 2.34 -33 2 C-32.31373535 1.97494385 -31.6274707 1.9498877 -30.92041016 1.92407227 C-27.82174183 1.80828573 -24.72339077 1.68548115 -21.625 1.5625 C-20.54476562 1.52318359 -19.46453125 1.48386719 -18.3515625 1.44335938 C-16.8046875 1.38051758 -16.8046875 1.38051758 -15.2265625 1.31640625 C-14.27346191 1.27974854 -13.32036133 1.24309082 -12.33837891 1.20532227 C-7.99280387 0.82375737 -4.61333638 -0.07440865 0 0 Z " fill="#E6BF64" transform="translate(276,398)"/>
<path d="M0 0 C0 0.66 0 1.32 0 2 C-0.66 2 -1.32 2 -2 2 C-2 3.65 -2 5.3 -2 7 C-1.34 7.33 -0.68 7.66 0 8 C0 8.66 0 9.32 0 10 C-5.66153846 8.52307692 -5.66153846 8.52307692 -7.375 5.875 C-7.58125 5.25625 -7.7875 4.6375 -8 4 C-2.25 0 -2.25 0 0 0 Z " fill="#BA2615" transform="translate(192,351)"/>
<path d="M0 0 C1.140625 1.7421875 1.140625 1.7421875 2 4 C1.171875 6.0703125 1.171875 6.0703125 -0.25 8.125 C-0.70890625 8.80820313 -1.1678125 9.49140625 -1.640625 10.1953125 C-3 12 -3 12 -5 14 C-5 6 -5 6 -4 3 C-1.9375 1.3125 -1.9375 1.3125 0 0 Z " fill="#F2CC66" transform="translate(126,156)"/>
<path d="M0 0 C0.12375 0.61875 0.2475 1.2375 0.375 1.875 C0.87197356 4.19120832 0.87197356 4.19120832 3 6 C3.625 8.125 3.625 8.125 4 10 C3.01 10.33 2.02 10.66 1 11 C1 10.34 1 9.68 1 9 C-0.65 9.33 -2.3 9.66 -4 10 C-2.8905928 6.51329166 -1.73662334 3.22515763 0 0 Z " fill="#67413E" transform="translate(28,132)"/>
<path d="M0 0 C0.33 0 0.66 0 1 0 C1.42800349 4.48999883 0.29964661 6.63734175 -2.3125 10.25 C-3.23482422 11.55710938 -3.23482422 11.55710938 -4.17578125 12.890625 C-6 15 -6 15 -9 16 C-7.56786488 12.06342758 -5.69667846 8.71068644 -3.4375 5.1875 C-2.50744141 3.72376953 -2.50744141 3.72376953 -1.55859375 2.23046875 C-1.04425781 1.49441406 -0.52992187 0.75835937 0 0 Z " fill="#E4BD64" transform="translate(64,120)"/>
<path d="M0 0 C0.66 0.99 1.32 1.98 2 3 C0.68 3.33 -0.64 3.66 -2 4 C-2.68707555 6.49064888 -3 8.37886292 -3 11 C-4.98 10.34 -6.96 9.68 -9 9 C-6.21000549 5.51250686 -3.74764169 2.49842779 0 0 Z " fill="#FAD56F" transform="translate(105,76)"/>
<path d="M0 0 C-2.28874173 1.33858524 -4.58069656 2.67101014 -6.875 4 C-7.52597656 4.3815625 -8.17695313 4.763125 -8.84765625 5.15625 C-13.7734375 8 -13.7734375 8 -16 8 C-16 7.34 -16 6.68 -16 6 C-14.36209288 4.95355934 -12.68991979 3.9601817 -11 3 C-9.9790625 2.195625 -9.9790625 2.195625 -8.9375 1.375 C-5.63735686 -0.96703707 -3.84838088 -1.28279363 0 0 Z " fill="#F1AF5D" transform="translate(368,443)"/>
<path d="M0 0 C4.50802601 1.25805377 7.4912812 2.90407165 11 6 C10.360625 6.12375 9.72125 6.2475 9.0625 6.375 C8.381875 6.58125 7.70125 6.7875 7 7 C6.67 7.66 6.34 8.32 6 9 C5.01 9 4.02 9 3 9 C2.67 6.69 2.34 4.38 2 2 C1.34 2 0.68 2 0 2 C0 1.34 0 0.68 0 0 Z " fill="#562F2D" transform="translate(367,29)"/>
<path d="M0 0 C1.32 0.66 2.64 1.32 4 2 C3.67 3.32 3.34 4.64 3 6 C3.99 6.33 4.98 6.66 6 7 C6.59732819 9.76264289 7 12.16032769 7 15 C5.63053378 13.26194659 4.27984046 11.50908767 2.9375 9.75 C2.18339844 8.77546875 1.42929687 7.8009375 0.65234375 6.796875 C-1 4 -1 4 -0.74609375 1.640625 C-0.49988281 1.09921875 -0.25367188 0.5578125 0 0 Z " fill="#755755" transform="translate(43,387)"/>
<path d="M0 0 C2.00720923 0.28674418 4.0085944 0.61866701 6 1 C3.28256973 3.71743027 0.13057954 4.50932886 -3.4375 5.6875 C-4.4594043 6.04424805 -4.4594043 6.04424805 -5.50195312 6.40820312 C-10.63364573 8.12211809 -10.63364573 8.12211809 -14 7 C-13.34 7 -12.68 7 -12 7 C-12 6.34 -12 5.68 -12 5 C-10.9275 4.896875 -9.855 4.79375 -8.75 4.6875 C-4.68355916 3.94198585 -2.84467707 2.84467707 0 0 Z " fill="#C92718" transform="translate(293,364)"/>
<path d="M0 0 C5.97201091 0.53129376 10.94616743 1.84610941 16.5 4.0625 C17.22703125 4.34416016 17.9540625 4.62582031 18.703125 4.91601562 C20.47191255 5.60258448 22.23643041 6.30013682 24 7 C24 7.33 24 7.66 24 8 C20.10611847 8.35398923 17.48632503 7.49473883 13.96875 5.859375 C11.0584747 4.58901673 8.04656518 3.68398958 5.015625 2.74609375 C3 2 3 2 0 0 Z " fill="#5E160E" transform="translate(288,317)"/>
<path d="M0 0 C-1.01953125 1.45703125 -1.01953125 1.45703125 -3 3 C-5.62939205 3.37644848 -8.05072472 3.60133087 -10.6875 3.6875 C-11.38939453 3.72166016 -12.09128906 3.75582031 -12.81445312 3.79101562 C-14.54241387 3.87329947 -16.27118072 3.9383324 -18 4 C-15.48115349 1.48115349 -13.56355758 1.1742412 -10.125 0.3125 C-9.07570312 0.04050781 -8.02640625 -0.23148438 -6.9453125 -0.51171875 C-4.14833162 -0.97540921 -2.627808 -0.94575698 0 0 Z " fill="#D5AD5A" transform="translate(206,29)"/>
<path d="M0 0 C-2.64 2.97 -5.28 5.94 -8 9 C-8.33 8.34 -8.66 7.68 -9 7 C-8.67 6.34 -8.34 5.68 -8 5 C-8.66 4.67 -9.32 4.34 -10 4 C-4.5 -1.125 -4.5 -1.125 0 0 Z " fill="#7B605D" transform="translate(448,405)"/>
<path d="M0 0 C3.68006822 3.38168431 5.9785845 6.42521756 8 11 C6.35 11 4.7 11 3 11 C3 9.68 3 8.36 3 7 C2.01 6.67 1.02 6.34 0 6 C0 4 0 2 0 0 Z " fill="#714F4E" transform="translate(449,98)"/>
<path d="M0 0 C0.66 0.66 1.32 1.32 2 2 C-1.63 5.63 -5.26 9.26 -9 13 C-9.66 12.34 -10.32 11.68 -11 11 C-10.01 10.67 -9.02 10.34 -8 10 C-7.731875 9.030625 -7.46375 8.06125 -7.1875 7.0625 C-6.795625 6.051875 -6.40375 5.04125 -6 4 C-2.875 2.625 -2.875 2.625 0 2 C0 1.34 0 0.68 0 0 Z " fill="#5E3213" transform="translate(94,83)"/>
<path d="M0 0 C5.445 1.485 5.445 1.485 11 3 C10.67 3.66 10.34 4.32 10 5 C4.86496656 4.35812082 0.0056546 3.31727753 -5 2 C-4.360625 1.855625 -3.72125 1.71125 -3.0625 1.5625 C-1.02454854 1.18992819 -1.02454854 1.18992819 0 0 Z " fill="#70441C" transform="translate(215,393)"/>
<path d="M0 0 C1.28610235 3.85830705 0.67580926 5.34368888 -1 9 C-3.921077 11.24698231 -5.29588166 12 -9 12 C-6.03 8.04 -3.06 4.08 0 0 Z " fill="#5F2C0E" transform="translate(433,382)"/>
<path d="M0 0 C0.99 0.33 1.98 0.66 3 1 C1.54634731 2.17249353 0.08692581 3.33783816 -1.375 4.5 C-2.18710937 5.1496875 -2.99921875 5.799375 -3.8359375 6.46875 C-6 8 -6 8 -8 8 C-8 4 -8 4 -6.8125 2.1875 C-5 1 -5 1 -2.3125 1.3125 C-1.549375 1.539375 -0.78625 1.76625 0 2 C0 1.34 0 0.68 0 0 Z " fill="#4D210A" transform="translate(338,368)"/>
<path d="M0 0 C0.99 0 1.98 0 3 0 C3.33 1.98 3.66 3.96 4 6 C4.99 6 5.98 6 7 6 C8 9 8 9 7.0625 11.1875 C6.5365625 12.0846875 6.5365625 12.0846875 6 13 C4.99491199 11.21118264 3.99607264 9.41885304 3 7.625 C2.1646875 6.12839844 2.1646875 6.12839844 1.3125 4.6015625 C0 2 0 2 0 0 Z " fill="#4E1C06" transform="translate(448,139)"/>
<path d="M0 0 C0 0.66 0 1.32 0 2 C-0.99 2 -1.98 2 -3 2 C-3.33 2.99 -3.66 3.98 -4 5 C-6.75078884 5.91692961 -8.35948913 6.10886083 -11.1875 6.0625 C-13.0746875 6.0315625 -13.0746875 6.0315625 -15 6 C-12.29954818 4.19969878 -9.93322119 3.06622934 -6.9375 1.875 C-6.05964844 1.52179688 -5.18179687 1.16859375 -4.27734375 0.8046875 C-2 0 -2 0 0 0 Z " fill="#501E08" transform="translate(332,461)"/>
<path d="M0 0 C0.99 0.495 0.99 0.495 2 1 C2.37238718 3.32741989 2.69836866 5.66235715 3 8 C3.350625 9.175625 3.70125 10.35125 4.0625 11.5625 C4.97051692 14.89189539 5.16721405 17.57211192 5 21 C4.67 21 4.34 21 4 21 C3.32382476 18.62734939 2.65891774 16.25244645 2 13.875 C1.80921875 13.20984375 1.6184375 12.5446875 1.421875 11.859375 C0.30791545 7.8013795 -0.20950232 4.20314026 0 0 Z " fill="#D5AE60" transform="translate(29,296)"/>
<path d="M0 0 C1.81248985 3.6249797 2.31888915 5.37259584 2.625 9.25 C2.69976562 10.14203125 2.77453125 11.0340625 2.8515625 11.953125 C2.90054687 12.62859375 2.94953125 13.3040625 3 14 C1.35 12.68 -0.3 11.36 -2 10 C-1.34 6.7 -0.68 3.4 0 0 Z " fill="#816564" transform="translate(493,189)"/>
<path d="M0 0 C0.33 0.99 0.66 1.98 1 3 C0.01508669 4.70718307 -0.97552539 6.41180457 -2.015625 8.0859375 C-3.47554297 10.92466688 -3.62338942 13.86157847 -4 17 C-4.66 17.33 -5.32 17.66 -6 18 C-5.8349028 10.67568804 -4.43630328 5.86050397 0 0 Z " fill="#DAB161" transform="translate(332,172)"/>
<path d="M0 0 C0.66 0.66 1.32 1.32 2 2 C-0.64 7.61 -3.28 13.22 -6 19 C-7.77493415 13.67519755 -4.21152871 8.3237613 -1.8125 3.5 C-1.214375 2.345 -0.61625 1.19 0 0 Z " fill="#502507" transform="translate(47,145)"/>
<path d="M0 0 C0.66 0 1.32 0 2 0 C1.6875 2.375 1.6875 2.375 1 5 C-2 7 -2 7 -4.125 6.8125 C-4.74375 6.544375 -5.3625 6.27625 -6 6 C-6.33 5.01 -6.66 4.02 -7 3 C-5.1875 1.9375 -5.1875 1.9375 -3 1 C-2.01 1.33 -1.02 1.66 0 2 C0 1.34 0 0.68 0 0 Z " fill="#F3CD5F" transform="translate(122,65)"/>
<path d="M0 0 C1.62974564 0.76074843 3.25366648 1.53398433 4.875 2.3125 C5.77992188 2.74175781 6.68484375 3.17101563 7.6171875 3.61328125 C10 5 10 5 12 8 C9.69 7.34 7.38 6.68 5 6 C4.67 6.66 4.34 7.32 4 8 C1.81715496 5.34262343 0.72366315 3.34430737 0 0 Z " fill="#795C5A" transform="translate(386,40)"/>
<path d="M0 0 C0.66 0 1.32 0 2 0 C0.42986223 5.96652354 -2.75029782 10.82909025 -6 16 C-7 13 -7 13 -6.22265625 10.95703125 C-5.83980469 10.24933594 -5.45695312 9.54164063 -5.0625 8.8125 C-4.68222656 8.09707031 -4.30195313 7.38164062 -3.91015625 6.64453125 C-3.60980469 6.10183594 -3.30945313 5.55914062 -3 5 C-2.34 5 -1.68 5 -1 5 C-0.67 3.35 -0.34 1.7 0 0 Z " fill="#EFAE5D" transform="translate(449,352)"/>
<path d="M0 0 C0.33 0 0.66 0 1 0 C1.35333233 4.94665267 0.33943551 7.68104214 -2 12 C-2.33 13.093125 -2.66 14.18625 -3 15.3125 C-3.33 16.199375 -3.66 17.08625 -4 18 C-4.99 18.33 -5.98 18.66 -7 19 C-5.81246867 14.24987468 -4.22828298 10.20410167 -1.90234375 5.89453125 C-0.97458646 3.94664257 -0.45262281 2.10446276 0 0 Z " fill="#59140A" transform="translate(367,289)"/>
<path d="M0 0 C-2.62353518 1.00399524 -5.24867795 2.00334445 -7.875 3 C-8.62136719 3.28617187 -9.36773437 3.57234375 -10.13671875 3.8671875 C-15.7734375 6 -15.7734375 6 -18 6 C-18 5.34 -18 4.68 -18 4 C-17.01 4 -16.02 4 -15 4 C-15 3.34 -15 2.68 -15 2 C-13.06524329 1.46906676 -11.12706845 0.95057683 -9.1875 0.4375 C-8.10855469 0.14746094 -7.02960938 -0.14257812 -5.91796875 -0.44140625 C-3 -1 -3 -1 0 0 Z " fill="#D39551" transform="translate(330,462)"/>
<path d="M0 0 C0.79596365 2.69138789 1.04361747 3.83346058 0.3125 6.625 C-1.16625774 9.30084735 -2.17750049 9.96508351 -5 11 C-5 7.58678765 -4.33132534 6.60527115 -2.5 3.8125 C-2.0359375 3.09707031 -1.571875 2.38164062 -1.09375 1.64453125 C-0.7328125 1.10183594 -0.371875 0.55914062 0 0 Z " fill="#5D2B11" transform="translate(443,367)"/>
<path d="M0 0 C0.33 0 0.66 0 1 0 C0.88566637 2.25056722 0.75813564 4.50046674 0.625 6.75 C0.52058594 8.62945312 0.52058594 8.62945312 0.4140625 10.546875 C0.04676696 13.60998121 -0.39711286 15.41974266 -2 18 C-2.05397335 15.5622037 -2.09365616 13.12560315 -2.125 10.6875 C-2.14175781 9.99720703 -2.15851563 9.30691406 -2.17578125 8.59570312 C-2.21217794 4.82864604 -2.14378864 3.21568296 0 0 Z " fill="#CB8E48" transform="translate(473,280)"/>
<path d="M0 0 C0.66 0.33 1.32 0.66 2 1 C-3.91684902 8.68490153 -3.91684902 8.68490153 -8.4375 10 C-9.283125 10 -10.12875 10 -11 10 C-7.50640535 6.40365256 -3.88901869 3.16548033 0 0 Z " fill="#E1BB65" transform="translate(347,363)"/>
<path d="M0 0 C-0.33 0.99 -0.66 1.98 -1 3 C-4.96 3 -8.92 3 -13 3 C-13 2.34 -13 1.68 -13 1 C-8.62426048 0.40667939 -4.42471556 -0.13827236 0 0 Z " fill="#E7C068" transform="translate(199,195)"/>
<path d="M0 0 C6.03748977 0.80499864 12.01270113 1.88482498 18 3 C18 3.66 18 4.32 18 5 C11.69632197 4.41632611 6.01339937 2.95928381 0 1 C0 0.67 0 0.34 0 0 Z " fill="#CEA65A" transform="translate(184,466)"/>
<path d="M0 0 C0.33 0 0.66 0 1 0 C1 5.61 1 11.22 1 17 C0.34 17.33 -0.32 17.66 -1 18 C-1.33 14.7 -1.66 11.4 -2 8 C-1.34 8 -0.68 8 0 8 C0 5.36 0 2.72 0 0 Z " fill="#EEAA58" transform="translate(474,260)"/>
<path d="M0 0 C0.33 0 0.66 0 1 0 C1.3690205 13.6332574 1.3690205 13.6332574 -1 20 C-1.33 20 -1.66 20 -2 20 C-2.26404456 13.13484138 -1.25841946 6.74153283 0 0 Z " fill="#D0AA57" transform="translate(28,202)"/>
<path d="M0 0 C0 3.64478912 -0.85802506 5.09303401 -3 8 C-5.1875 8.8125 -5.1875 8.8125 -7 9 C-6.38722388 6.03824877 -5.74627478 4.61941217 -4 2 C-1.875 0.8125 -1.875 0.8125 0 0 Z " fill="#45231F" transform="translate(72,75)"/>
<path d="M0 0 C-5.06922851 2.8595648 -11.34143008 5.7291995 -17.2734375 4.546875 C-17.84320313 4.36640625 -18.41296875 4.1859375 -19 4 C-16.58732675 3.132758 -14.17095531 2.28103064 -11.75 1.4375 C-11.06808594 1.19064453 -10.38617188 0.94378906 -9.68359375 0.68945312 C-3.41657839 -1.47053761 -3.41657839 -1.47053761 0 0 Z " fill="#DBB463" transform="translate(188,34)"/>
<path d="M0 0 C1.72945653 0.14235457 3.45855654 0.28904382 5.1875 0.4375 C6.63189453 0.55931641 6.63189453 0.55931641 8.10546875 0.68359375 C10.78649602 0.97666151 13.3662986 1.42703754 16 2 C16 2.33 16 2.66 16 3 C14.54182203 3.16802051 13.0834516 3.33437143 11.625 3.5 C10.40683594 3.63921875 10.40683594 3.63921875 9.1640625 3.78125 C7.08859833 3.99104421 5.08402509 4 3 4 C1.375 2 1.375 2 0 0 Z " fill="#A48D89" transform="translate(287,2)"/>
<path d="M0 0 C0.33 1.32 0.66 2.64 1 4 C1.66 4 2.32 4 3 4 C2.67 4.66 2.34 5.32 2 6 C1.236875 5.9175 0.47375 5.835 -0.3125 5.75 C-3.14583333 5.70833333 -3.14583333 5.70833333 -4.8125 8 C-5.4003125 8.99 -5.4003125 8.99 -6 10 C-6.66 9.67 -7.32 9.34 -8 9 C-5.36 6.03 -2.72 3.06 0 0 Z " fill="#EDC76D" transform="translate(84,96)"/>
<path d="M0 0 C2.31 0.33 4.62 0.66 7 1 C7.12375 1.639375 7.2475 2.27875 7.375 2.9375 C7.684375 3.9584375 7.684375 3.9584375 8 5 C8.66 5.33 9.32 5.66 10 6 C9.67 6.66 9.34 7.32 9 8 C7.49712782 6.85793642 5.99776716 5.71125043 4.5 4.5625 C3.6646875 3.92441406 2.829375 3.28632813 1.96875 2.62890625 C1.3190625 2.09136719 0.669375 1.55382812 0 1 C0 0.67 0 0.34 0 0 Z " fill="#E4BC61" transform="translate(100,419)"/>
<path d="M0 0 C3.63 0 7.26 0 11 0 C11 0.66 11 1.32 11 2 C10.31292969 2.06058594 9.62585938 2.12117187 8.91796875 2.18359375 C7.56638672 2.30927734 7.56638672 2.30927734 6.1875 2.4375 C5.29417969 2.51871094 4.40085937 2.59992188 3.48046875 2.68359375 C0.87256441 2.93489767 0.87256441 2.93489767 -2 4 C-1.34 2.68 -0.68 1.36 0 0 Z " fill="#4E2306" transform="translate(338,165)"/>
<path d="M0 0 C2.25 0.25 2.25 0.25 4 1 C3.2575 1.8971875 3.2575 1.8971875 2.5 2.8125 C0.71723582 4.97029994 0.71723582 4.97029994 1 8 C-1.475 7.01 -1.475 7.01 -4 6 C-4 4 -4 4 -2.25 1.8125 C-1.5075 1.214375 -0.765 0.61625 0 0 Z " fill="#3E120D" transform="translate(78,69)"/>
<path d="M0 0 C2.64 0 5.28 0 8 0 C7.34 1.98 6.68 3.96 6 6 C1.125 3.375 1.125 3.375 0 0 Z " fill="#51250D" transform="translate(384,66)"/>
<path d="M0 0 C0.66 0.33 1.32 0.66 2 1 C1.67 1.66 1.34 2.32 1 3 C1.99 2.67 2.98 2.34 4 2 C4.66 2.66 5.32 3.32 6 4 C5.67 4.99 5.34 5.98 5 7 C2.69 6.01 0.38 5.02 -2 4 C-1.34 2.68 -0.68 1.36 0 0 Z " fill="#EFC96A" transform="translate(153,450)"/>
<path d="M0 0 C0.66 0.33 1.32 0.66 2 1 C0.25 3.5 0.25 3.5 -2 6 C-3.32 6 -4.64 6 -6 6 C-6.33 6.66 -6.66 7.32 -7 8 C-7.66 7.34 -8.32 6.68 -9 6 C-6.03 4.02 -3.06 2.04 0 0 Z " fill="#602D0E" transform="translate(379,435)"/>
<path d="M0 0 C0.66 0 1.32 0 2 0 C0.4169423 4.2742558 -2.50568404 6.26531794 -6 9 C-6.66 8.34 -7.32 7.68 -8 7 C-6.6875 5.5 -6.6875 5.5 -5 4 C-4.01 4 -3.02 4 -2 4 C-2 3.34 -2 2.68 -2 2 C-1.34 2 -0.68 2 0 2 C0 1.34 0 0.68 0 0 Z " fill="#4F240E" transform="translate(359,349)"/>
<path d="M0 0 C1.49828872 3.88235819 0.43110582 6.43449288 -0.9375 10.25 C-1.31777344 11.32765625 -1.69804687 12.4053125 -2.08984375 13.515625 C-2.39019531 14.33546875 -2.69054687 15.1553125 -3 16 C-3.33 16 -3.66 16 -4 16 C-4.125 9.375 -4.125 9.375 -3 6 C-2.34 6 -1.68 6 -1 6 C-0.67 4.02 -0.34 2.04 0 0 Z " fill="#907574" transform="translate(491,314)"/>
<path d="M0 0 C0.99 0.33 1.98 0.66 3 1 C1.68 3.31 0.36 5.62 -1 8 C-1.33 7.34 -1.66 6.68 -2 6 C-2.66 5.67 -3.32 5.34 -4 5 C-2.25 1.125 -2.25 1.125 0 0 Z " fill="#4D2A2A" transform="translate(460,381)"/>
<path d="M0 0 C1.98 0.66 3.96 1.32 6 2 C6 2.66 6 3.32 6 4 C7.65 3.34 9.3 2.68 11 2 C10.34 3.32 9.68 4.64 9 6 C4.75177626 5.52797514 2.80010291 3.03344482 0 0 Z " fill="#7A1E16" transform="translate(328,334)"/>
<path d="M0 0 C0.66 0.33 1.32 0.66 2 1 C1.67 1.99 1.34 2.98 1 4 C0.34 4 -0.32 4 -1 4 C-1 5.65 -1 7.3 -1 9 C-2.98 9.99 -2.98 9.99 -5 11 C-3.77472971 6.94718288 -2.30119506 3.55639236 0 0 Z " fill="#E7BE68" transform="translate(53,138)"/>
<path d="M0 0 C0.66 0.66 1.32 1.32 2 2 C2.66 1.67 3.32 1.34 4 1 C4.66 1.33 5.32 1.66 6 2 C4.63016497 5.16115776 4.0109362 5.9927092 1 8 C0.67 5.36 0.34 2.72 0 0 Z " fill="#50240E" transform="translate(73,99)"/>
<path d="M0 0 C-1.78953185 0.83790789 -3.58169695 1.67019396 -5.375 2.5 C-6.87160156 3.19609375 -6.87160156 3.19609375 -8.3984375 3.90625 C-11 5 -11 5 -13 5 C-13 4.34 -13 3.68 -13 3 C-12.360625 2.87625 -11.72125 2.7525 -11.0625 2.625 C-10.0415625 2.315625 -10.0415625 2.315625 -9 2 C-8.67 1.34 -8.34 0.68 -8 0 C-4.95647475 -1.15444061 -3.07394306 -0.85709523 0 0 Z " fill="#E7A85B" transform="translate(344,456)"/>
<path d="M0 0 C0 2 0 2 -1.5 3.5625 C-4.9985316 5.57415567 -7.98949133 5.66579094 -12 6 C-10.02433812 4.02433812 -8.47662906 3.10420928 -6 1.875 C-5.29875 1.52179688 -4.5975 1.16859375 -3.875 0.8046875 C-2 0 -2 0 0 0 Z " fill="#6C1208" transform="translate(313,359)"/>
<path d="M0 0 C2.7920147 1.39600735 3.00162933 3.00416384 4.125 5.875 C4.47820312 6.75929688 4.83140625 7.64359375 5.1953125 8.5546875 C6 11 6 11 6 14 C5.01 13.67 4.02 13.34 3 13 C2.05078125 10.05859375 2.05078125 10.05859375 1.3125 6.4375 C1.06113281 5.23996094 0.80976563 4.04242188 0.55078125 2.80859375 C0.27814453 1.41833984 0.27814453 1.41833984 0 0 Z " fill="#5A160B" transform="translate(132,290)"/>
<path d="M0 0 C0.33 0 0.66 0 1 0 C1.49230769 7.38461538 1.49230769 7.38461538 -1 10.5 C-1.66 10.995 -2.32 11.49 -3 12 C-2.67 9.36 -2.34 6.72 -2 4 C-1.34 4 -0.68 4 0 4 C0 2.68 0 1.36 0 0 Z " fill="#4A1208" transform="translate(372,276)"/>
<path d="M0 0 C0.66 0 1.32 0 2 0 C1.34 4.62 0.68 9.24 0 14 C-0.33 14 -0.66 14 -1 14 C-1.93402724 8.58264203 -2.20808081 5.19548425 0 0 Z " fill="#673C15" transform="translate(143,174)"/>
<path d="M0 0 C0.99 1.32 1.98 2.64 3 4 C-0.75 7 -0.75 7 -3 7 C-3 7.66 -3 8.32 -3 9 C-3.66 8.67 -4.32 8.34 -5 8 C-3.35 5.36 -1.7 2.72 0 0 Z " fill="#6A4E4A" transform="translate(45,105)"/>
<path d="M0 0 C3.63 0 7.26 0 11 0 C10.67 1.32 10.34 2.64 10 4 C6.7 3.01 3.4 2.02 0 1 C0 0.67 0 0.34 0 0 Z " fill="#562910" transform="translate(322,35)"/>
<path d="M0 0 C0.33 0.99 0.66 1.98 1 3 C-1.97 3 -4.94 3 -8 3 C-8 2.34 -8 1.68 -8 1 C-5.07175348 0.02391783 -3.04386724 -0.08226668 0 0 Z " fill="#E4A953" transform="translate(277,472)"/>
<path d="M0 0 C0.33 0.99 0.66 1.98 1 3 C-0.40445835 5.2636564 -2.1967913 7.0208685 -4 9 C-4.99 8.67 -5.98 8.34 -7 8 C-4.69 5.36 -2.38 2.72 0 0 Z " fill="#DDB562" transform="translate(365,345)"/>
<path d="M0 0 C0.99 0.33 1.98 0.66 3 1 C1.02 5.455 1.02 5.455 -1 10 C-1.33 10 -1.66 10 -2 10 C-2.25 3.375 -2.25 3.375 0 0 Z " fill="#552A0A" transform="translate(385,308)"/>
<path d="M0 0 C0.99404438 2.98213315 1.05554146 4.44458538 0.75 7.5 C0.68296875 8.2734375 0.6159375 9.046875 0.546875 9.84375 C-0.09329518 12.36784958 -1.03100667 13.34858624 -3 15 C-2.88529863 13.24929483 -2.75780972 11.49942464 -2.625 9.75 C-2.55539063 8.77546875 -2.48578125 7.8009375 -2.4140625 6.796875 C-2.01534751 4.10366811 -1.36492937 2.33036721 0 0 Z " fill="#491D06" transform="translate(124,164)"/>
<path d="M0 0 C-0.99 0.33 -1.98 0.66 -3 1 C-3 1.66 -3 2.32 -3 3 C-6.3 3 -9.6 3 -13 3 C-3.5 -1.75 -3.5 -1.75 0 0 Z " fill="#691208" transform="translate(291,370)"/>
<path d="M0 0 C1 2 1 2 0.3125 4.5625 C-1 7 -1 7 -3.125 7.8125 C-3.74375 7.874375 -4.3625 7.93625 -5 8 C-5 8.66 -5 9.32 -5 10 C-5.66 9.67 -6.32 9.34 -7 9 C-4.69 6.03 -2.38 3.06 0 0 Z " fill="#E1BA69" transform="translate(373,335)"/>
<path d="M0 0 C0.99 0.33 1.98 0.66 3 1 C1.02 3.97 -0.96 6.94 -3 10 C-4 6 -4 6 -3 4 C-2.34 4 -1.68 4 -1 4 C-0.67 2.68 -0.34 1.36 0 0 Z " fill="#EBC269" transform="translate(312,155)"/>
<path d="M0 0 C0.99 0 1.98 0 3 0 C3.33 0.66 3.66 1.32 4 2 C4.99 2.66 5.98 3.32 7 4 C2.545 4.495 2.545 4.495 -2 5 C-1.34 3.35 -0.68 1.7 0 0 Z " fill="#3D130E" transform="translate(180,10)"/>
<path d="M0 0 C6.0546875 -0.1953125 6.0546875 -0.1953125 8 0 C8.66 0.66 9.32 1.32 10 2 C8.68 2 7.36 2 6 2 C5.67 2.99 5.34 3.98 5 5 C4.01 4.34 3.02 3.68 2 3 C2.33 2.34 2.66 1.68 3 1 C2.01 0.67 1.02 0.34 0 0 Z " fill="#391010" transform="translate(279,2)"/>
<path d="M0 0 C2.97 1.65 5.94 3.3 9 5 C5.52176885 6.15941038 3.54104422 5.70820884 0 5 C0 3.35 0 1.7 0 0 Z " fill="#50240B" transform="translate(122,437)"/>
<path d="M0 0 C-1.28813342 0.83878455 -2.58063256 1.67086783 -3.875 2.5 C-4.59429687 2.9640625 -5.31359375 3.428125 -6.0546875 3.90625 C-8 5 -8 5 -10 5 C-10 4.01 -10 3.02 -10 2 C-9.01 2 -8.02 2 -7 2 C-6.67 1.34 -6.34 0.68 -6 0 C-3 -1 -3 -1 0 0 Z " fill="#562B0C" transform="translate(330,377)"/>
<path d="M0 0 C0 3.19610552 -0.54671542 4.41717626 -2 7.1875 C-2.37125 7.90292969 -2.7425 8.61835938 -3.125 9.35546875 C-3.41375 9.89816406 -3.7025 10.44085938 -4 11 C-5.09658936 7.71023192 -4.79953138 6.28696233 -4 3 C-3.34 3 -2.68 3 -2 3 C-2 2.34 -2 1.68 -2 1 C-1.34 0.67 -0.68 0.34 0 0 Z " fill="#572C0D" transform="translate(382,318)"/>
<path d="M0 0 C0.33 0 0.66 0 1 0 C0.58525633 5.28798182 -0.35224614 8.11690718 -4 12 C-3.71788123 10.3733152 -3.42397625 8.74867104 -3.125 7.125 C-2.96257813 6.22007812 -2.80015625 5.31515625 -2.6328125 4.3828125 C-2 2 -2 2 0 0 Z " fill="#532809" transform="translate(53,133)"/>
<path d="M0 0 C-0.99 1.485 -0.99 1.485 -2 3 C-4.97 2.67 -7.94 2.34 -11 2 C-6.78370866 -0.10814567 -4.60209225 -0.17700355 0 0 Z " fill="#DBB160" transform="translate(295,394)"/>
<path d="M0 0 C0.66 0 1.32 0 2 0 C1.67 1.32 1.34 2.64 1 4 C0.34 4 -0.32 4 -1 4 C-1.33 5.65 -1.66 7.3 -2 9 C-2.66 8.67 -3.32 8.34 -4 8 C-2.87548273 5.0280615 -1.77706209 2.66559313 0 0 Z " fill="#56130B" transform="translate(357,312)"/>
<path d="M0 0 C4.21912747 0.4794463 6.79663178 1.16625119 10 4 C2.25 3.125 2.25 3.125 0 2 C0 1.34 0 0.68 0 0 Z " fill="#4B2104" transform="translate(171,145)"/>
<path d="M0 0 C0.66 0 1.32 0 2 0 C0.6302836 3.99500618 -1.25722422 6.80009492 -4 10 C-3.67 8.02 -3.34 6.04 -3 4 C-2.34 4 -1.68 4 -1 4 C-0.67 2.68 -0.34 1.36 0 0 Z " fill="#522708" transform="translate(61,121)"/>
<path d="M0 0 C2.96404505 2.80804268 5.44499019 5.18315774 7 9 C5.35 8.67 3.7 8.34 2 8 C1.34 5.36 0.68 2.72 0 0 Z " fill="#D0904C" transform="translate(423,104)"/>
<path d="M0 0 C-0.33 0.99 -0.66 1.98 -1 3 C-3.97 2.67 -6.94 2.34 -10 2 C-6.3558226 -0.4294516 -4.28758728 -0.16179575 0 0 Z " fill="#421705" transform="translate(321,467)"/>
<path d="M0 0 C-0.33 0.99 -0.66 1.98 -1 3 C-3.06640625 3.73046875 -3.06640625 3.73046875 -5.5625 4.1875 C-6.38878906 4.34605469 -7.21507812 4.50460937 -8.06640625 4.66796875 C-9.02353516 4.83232422 -9.02353516 4.83232422 -10 5 C-8.28489314 1.56978628 -3.75681361 0 0 0 Z " fill="#E5BD66" transform="translate(322,382)"/>
<path d="M0 0 C2.97 0.495 2.97 0.495 6 1 C2.88089144 2.79275866 0.32317572 3.34290718 -3.25 3.625 C-4.14203125 3.69976562 -5.0340625 3.77453125 -5.953125 3.8515625 C-6.62859375 3.90054687 -7.3040625 3.94953125 -8 4 C-4.77208445 1.8480563 -3.71599191 1.79913557 0 2 C0 1.34 0 0.68 0 0 Z " fill="#C62B1D" transform="translate(272,371)"/>
<path d="M0 0 C-1 2 -1 2 -4.0625 3.125 C-5.031875 3.41375 -6.00125 3.7025 -7 4 C-7 2.68 -7 1.36 -7 0 C-2.25 -1.125 -2.25 -1.125 0 0 Z " fill="#60150D" transform="translate(197,347)"/>
<path d="M0 0 C0.33 0.66 0.66 1.32 1 2 C1.66 2 2.32 2 3 2 C3 5.3 3 8.6 3 12 C2.67 12 2.34 12 2 12 C0.86235649 7.73383684 0 4.43513689 0 0 Z " fill="#927D7A" transform="translate(6,306)"/>
<path d="M0 0 C0.33 0 0.66 0 1 0 C1 2.64 1 5.28 1 8 C0.01 8.33 -0.98 8.66 -2 9 C-1.125 1.125 -1.125 1.125 0 0 Z " fill="#D8B060" transform="translate(396,283)"/>
<path d="M0 0 C-0.99 0.99 -1.98 1.98 -3 3 C-4.98 2.01 -6.96 1.02 -9 0 C-9 -0.33 -9 -0.66 -9 -1 C-3.375 -2.25 -3.375 -2.25 0 0 Z " fill="#E9C363" transform="translate(399,251)"/>
<path d="M0 0 C0.721875 0.474375 1.44375 0.94875 2.1875 1.4375 C4.89475226 2.94152903 6.96194275 3.56599182 10 4 C10 4.33 10 4.66 10 5 C3.375 5.25 3.375 5.25 0 3 C0 2.01 0 1.02 0 0 Z " fill="#F0C96C" transform="translate(122,193)"/>
<path d="M0 0 C-0.33 0.99 -0.66 1.98 -1 3 C-2.98 3.33 -4.96 3.66 -7 4 C-6.67 3.01 -6.34 2.02 -6 1 C-4 0 -4 0 0 0 Z " fill="#E9C266" transform="translate(327,193)"/>
<path d="M0 0 C2.79872437 2.52788007 4.45773019 4.20411134 5 8 C4.34 8 3.68 8 3 8 C2.67 7.34 2.34 6.68 2 6 C1.34 6 0.68 6 0 6 C0 4.02 0 2.04 0 0 Z " fill="#725753" transform="translate(467,126)"/>
<path d="M0 0 C5.94 1.485 5.94 1.485 12 3 C12 3.33 12 3.66 12 4 C7.01137151 4.29344873 4.03770942 4.05887078 0 1 C0 0.67 0 0.34 0 0 Z " fill="#D1A95C" transform="translate(300,29)"/>
<path d="M0 0 C1.32 0.66 2.64 1.32 4 2 C1.69 3.32 -0.62 4.64 -3 6 C-2.42655063 3.13275314 -2.1385485 2.1385485 0 0 Z " fill="#806868" transform="translate(393,452)"/>
<path d="M0 0 C0.66 0.33 1.32 0.66 2 1 C0.68 2.65 -0.64 4.3 -2 6 C-3.32 5.67 -4.64 5.34 -6 5 C-4.02 3.35 -2.04 1.7 0 0 Z " fill="#5C270C" transform="translate(390,427)"/>
<path d="M0 0 C2.475 0.495 2.475 0.495 5 1 C4.67 2.65 4.34 4.3 4 6 C2.62437146 4.71034824 1.29233607 3.37310707 0 2 C0 1.34 0 0.68 0 0 Z " fill="#EFC866" transform="translate(57,367)"/>
<path d="M0 0 C2.31 1.98 4.62 3.96 7 6 C6.01 6.33 5.02 6.66 4 7 C1.23609263 4.59660228 0.95934081 3.83736322 0 0 Z " fill="#E2B968" transform="translate(139,351)"/>
<path d="M0 0 C1.98 0 3.96 0 6 0 C6.33 0.66 6.66 1.32 7 2 C5.68 2.99 4.36 3.98 3 5 C1.5 3.625 1.5 3.625 0 2 C0 1.34 0 0.68 0 0 Z " fill="#4B200F" transform="translate(142,352)"/>
<path d="M0 0 C8.57142857 0.71428571 8.57142857 0.71428571 12 4 C7.24792529 4.43200679 4.21789302 2.98489083 0 1 C0 0.67 0 0.34 0 0 Z " fill="#511209" transform="translate(288,317)"/>
<path d="M0 0 C5.94 0.99 5.94 0.99 12 2 C12 2.33 12 2.66 12 3 C10.37509046 3.02698189 8.75005367 3.04638757 7.125 3.0625 C5.76761719 3.07990234 5.76761719 3.07990234 4.3828125 3.09765625 C2 3 2 3 0 2 C0 1.34 0 0.68 0 0 Z " fill="#5E340F" transform="translate(368,193)"/>
<path d="M0 0 C5.875 3.75 5.875 3.75 7 6 C6.01 6 5.02 6 4 6 C3.67 6.66 3.34 7.32 3 8 C1.92474806 5.34771188 0.90543849 2.71631546 0 0 Z " fill="#EBC56D" transform="translate(168,168)"/>
<path d="M0 0 C6.875 3.625 6.875 3.625 8 7 C7.34 7 6.68 7 6 7 C6 6.34 6 5.68 6 5 C5.38125 4.9175 4.7625 4.835 4.125 4.75 C2 4 2 4 0.75 1.9375 C0.5025 1.298125 0.255 0.65875 0 0 Z " fill="#E5BE6C" transform="translate(352,168)"/>
<path d="M0 0 C0.66 0.99 1.32 1.98 2 3 C-3.625 6 -3.625 6 -7 6 C-4.69 4.02 -2.38 2.04 0 0 Z " fill="#E7C168" transform="translate(105,76)"/>
<path d="M0 0 C-0.6875 1.9375 -0.6875 1.9375 -2 4 C-4.625 4.75 -4.625 4.75 -7 5 C-6 2 -6 2 -4.0625 0.8125 C-2 0 -2 0 0 0 Z " fill="#F6D06F" transform="translate(162,42)"/>
<path d="M0 0 C0.33 0.66 0.66 1.32 1 2 C2.32 1.67 3.64 1.34 5 1 C4.67 2.32 4.34 3.64 4 5 C1.08482708 3.92598892 -0.77810176 3.22189824 -3 1 C-2.01 0.67 -1.02 0.34 0 0 Z " fill="#ECC669" transform="translate(134,441)"/>
<path d="M0 0 C1.32 0 2.64 0 4 0 C2.95125002 2.62187494 2.35068687 3.79371361 -0.125 5.25 C-0.74375 5.4975 -1.3625 5.745 -2 6 C-1.34 4.02 -0.68 2.04 0 0 Z " fill="#826866" transform="translate(410,438)"/>
<path d="M0 0 C0.99 0 1.98 0 3 0 C2.67 1.32 2.34 2.64 2 4 C0.68 4.33 -0.64 4.66 -2 5 C-1.34 3.35 -0.68 1.7 0 0 Z " fill="#4E2626" transform="translate(426,423)"/>
<path d="M0 0 C1.32 0.99 2.64 1.98 4 3 C2.68 3.99 1.36 4.98 0 6 C-0.38218767 4.34385343 -0.71395102 2.67542976 -1 1 C-0.67 0.67 -0.34 0.34 0 0 Z " fill="#F4B45B" transform="translate(412,401)"/>
<path d="M0 0 C-0.66 1.32 -1.32 2.64 -2 4 C-3.98 4 -5.96 4 -8 4 C-3.375 0 -3.375 0 0 0 Z " fill="#F3CE6F" transform="translate(338,373)"/>
<path d="M0 0 C0.99 0 1.98 0 3 0 C2.34 2.31 1.68 4.62 1 7 C0.34 6.34 -0.32 5.68 -1 5 C-0.625 2.375 -0.625 2.375 0 0 Z " fill="#61443F" transform="translate(479,344)"/>
<path d="M0 0 C1 3 1 3 -0.4375 6.1875 C-1.2109375 7.5796875 -1.2109375 7.5796875 -2 9 C-2.97110486 5.97878489 -3.13617383 3.99536737 -2 1 C-1.34 0.67 -0.68 0.34 0 0 Z " fill="#EEAC5D" transform="translate(458,335)"/>
<path d="M0 0 C0.33 0.66 0.66 1.32 1 2 C1.66 2 2.32 2 3 2 C3 2.66 3 3.32 3 4 C3.66 4.33 4.32 4.66 5 5 C4.01 6.32 3.02 7.64 2 9 C1.34 6.03 0.68 3.06 0 0 Z " fill="#886969" transform="translate(9,318)"/>
<path d="M0 0 C2.31 0 4.62 0 7 0 C6.67 0.66 6.34 1.32 6 2 C3.35139573 2.59355614 0.70802678 2.74209269 -2 3 C-1.34 2.67 -0.68 2.34 0 2 C0 1.34 0 0.68 0 0 Z " fill="#741C12" transform="translate(214,313)"/>
<path d="M0 0 C0.66 0 1.32 0 2 0 C2.33 2.64 2.66 5.28 3 8 C2.01 7.34 1.02 6.68 0 6 C-0.1875 2.875 -0.1875 2.875 0 0 Z " fill="#DBB362" transform="translate(104,288)"/>
<path d="M0 0 C1.95418308 2.93127462 2.64700993 4.55834679 3 8 C2.34 8.66 1.68 9.32 1 10 C-0.60725635 6.78548731 -0.05748185 3.56387464 0 0 Z " fill="#5C310F" transform="translate(103,274)"/>
<path d="M0 0 C0.33 0 0.66 0 1 0 C1.75 3.25 1.75 3.25 2 7 C0.0625 9.4375 0.0625 9.4375 -2 11 C-2 7.07103605 -0.99700137 3.80106772 0 0 Z " fill="#E3BA66" transform="translate(143,182)"/>
<path d="M0 0 C0.66 0.99 1.32 1.98 2 3 C1.01 4.98 0.02 6.96 -1 9 C-1.66 9 -2.32 9 -3 9 C-2.01 6.03 -1.02 3.06 0 0 Z " fill="#E2BC63" transform="translate(41,162)"/>
<path d="M0 0 C0.33 0.66 0.66 1.32 1 2 C0.34 2 -0.32 2 -1 2 C-1.2475 2.639375 -1.495 3.27875 -1.75 3.9375 C-3 6 -3 6 -5.125 6.75 C-6.053125 6.87375 -6.053125 6.87375 -7 7 C-2.25 1.125 -2.25 1.125 0 0 Z " fill="#6B4E4D" transform="translate(79,67)"/>
<path d="M0 0 C-0.33 1.65 -0.66 3.3 -1 5 C-1.99 5 -2.98 5 -4 5 C-4 3.68 -4 2.36 -4 1 C-2 0 -2 0 0 0 Z " fill="#EEC66B" transform="translate(145,50)"/>
<path d="M0 0 C7.75 0.75 7.75 0.75 10 3 C7.69 3 5.38 3 3 3 C3 2.34 3 1.68 3 1 C2.01 0.67 1.02 0.34 0 0 Z " fill="#D6AF61" transform="translate(312,33)"/>
<path d="M0 0 C4.455 0.99 4.455 0.99 9 2 C7.02 2.99 7.02 2.99 5 4 C4.67 3.34 4.34 2.68 4 2 C2.68 2.33 1.36 2.66 0 3 C0 2.01 0 1.02 0 0 Z " fill="#896A6C" transform="translate(322,10)"/>
<path d="M0 0 C0 0.99 0 1.98 0 3 C-3.3 2.67 -6.6 2.34 -10 2 C-10 1.67 -10 1.34 -10 1 C-6.59437148 0.22157062 -3.49234244 -0.09978121 0 0 Z " fill="#AF9392" transform="translate(207,3)"/>
</svg>
